<svg xmlns="http://www.w3.org/2000/svg" viewBox="26.999998092651367 34.630001068115234 88.88999938964844 97.07951354980469"><defs><style>.cls-1{fill:#0e7575;}.cls-1,.cls-2,.cls-4{stroke:#000;}.cls-1,.cls-2,.cls-3,.cls-4,.cls-5,.cls-6,.cls-7{stroke-miterlimit:10;}.cls-1,.cls-2,.cls-3,.cls-4,.cls-5{stroke-width:0.5px;}.cls-2{fill:#fff;}.cls-3{stroke:#fff;}.cls-5{fill:#0e7f7c;stroke:#0e7f7c;}.cls-6,.cls-7{fill:none;}.cls-6{stroke:#550593;stroke-width:10px;}.cls-7{stroke:#8100cc;stroke-width:2px;}</style></defs><g id="Layer_2" data-name="Layer 2"><g id="characters"><path class="cls-1" d="M49.93,121.78c3.61-5.45,11.33-9.46,20.45-9.94,13-.68,23.87,6,24.35,15,0,.15,0,.3,0,.44-2,.76.64-.07-2.88.94a88.79,88.79,0,0,1-22.35,3.39,60.41,60.41,0,0,1-16.21-1.26c-3.07-.66-3.78-.61-5.56-1.27A12.32,12.32,0,0,1,49.93,121.78Z"></path><path class="cls-1" d="M103.86,97v0a4.13,4.13,0,0,1,3-3.55c2.29-.7,4.38,1.73,4.45,1.8a35.61,35.61,0,0,0-.62,4.59,21.44,21.44,0,0,0,.75,7.67c1.22,3.88,3,4.19,4.45,8.43l-6.07,4,0,0a16.89,16.89,0,0,0-1.17-6.8c-.91-2.23-2.07-3.55-2.37-6.14a28.92,28.92,0,0,1,.37-6C105.23,100.29,103.77,98.52,103.86,97Z"></path><path class="cls-1" d="M31.36,97.25a7,7,0,0,0-2,1.82,35,35,0,0,1,1.1,4.5,21.47,21.47,0,0,1,.06,7.71c-.8,4-2.5,4.47-3.52,8.82l0,0,6.45,3.38a16.93,16.93,0,0,1,.45-6.85c.67-2.32,1.68-3.75,1.71-6.36a29.51,29.51,0,0,0-1-5.9c1.27-.93,2.55-2.87,2.28-4.36a4.14,4.14,0,0,0-3.31-3.22A3.3,3.3,0,0,0,31.36,97.25Z"></path><path class="cls-1" d="M28.82,91c-1.46,3.5-1.74,5.58-1.29,6.51.68,1.43,3.15,2.71,4.52,2.32a19.8,19.8,0,0,1-.45-3.27A20,20,0,0,1,33,88.11c2.59-1.21,3.71-3.28,3.73-3.93,0-.25,0-.87,0-2,0-.4.46-1,.43-1.14a1,1,0,0,1-.25-.26,1.2,1.2,0,0,1-.11-1,10.63,10.63,0,0,0-2.36,1.69,23.73,23.73,0,0,0-4.36,6.71C29.59,89.26,29.17,90.17,28.82,91Z"></path><path class="cls-1" d="M111.24,87.57C113,91,113.38,93,113,94c-.58,1.47-2.94,2.93-4.34,2.64A20,20,0,0,0,106.87,85c-2.68-1-3.94-3-4-3.65,0-.25,0-.87-.14-2,0-.4-.54-.93-.51-1.1a.85.85,0,0,0,.22-.28,1.19,1.19,0,0,0,0-1A11.69,11.69,0,0,1,105,78.54a23.89,23.89,0,0,1,4.83,6.38C110.35,85.88,110.83,86.76,111.24,87.57Z"></path><ellipse class="cls-1" cx="70.26" cy="94.53" rx="38.71" ry="27.39" transform="translate(-4.89 3.84) rotate(-3.02)"></ellipse><circle class="cls-1" cx="97.35" cy="61.25" r="4.31"></circle><circle class="cls-1" cx="64.43" cy="40.02" r="5.39"></circle><path class="cls-1" d="M57.06,56.41a4.51,4.51,0,0,1-4.27,4.74,4.71,4.71,0,0,1-4.51-3.07,3.64,3.64,0,0,1-.23-1.19,4.76,4.76,0,0,1,4.27-4.74A4.51,4.51,0,0,1,57.06,56.41Z"></path><path class="cls-1" d="M43.77,73.84a6.44,6.44,0,0,1-.77-3,5.94,5.94,0,0,1,1.28-3.5,7.7,7.7,0,0,1,2.65-1.9c2.5-1.38,3.81-1.41,4.19-2.48a3.29,3.29,0,0,0-.21-2l2.27.27A3.22,3.22,0,0,1,52.35,64c-1.34,1.69-2.49,1.48-3.47,3a4.93,4.93,0,0,0-.71,3.18,8.59,8.59,0,0,0,.69,2l-4.47,2.59A7.27,7.27,0,0,1,43.77,73.84Z"></path><path class="cls-1" d="M61.64,68l-.24,0a20.21,20.21,0,0,1,2.42-4.25c3.4-4.38,6.8-4.63,7.27-7.45a6.17,6.17,0,0,0-2.34-5.28c-2.2-1.76-4.72-.86-6-2.72a5.07,5.07,0,0,1-.47-3.43h.2l3.54.2a3.53,3.53,0,0,0,.52,2.33c.73.89,2,.76,2.89.93,2.65.49,5.1,3.83,5.48,7.17.55,4.74-3.27,7.85-3.5,8-.93,1.53-2.11,2.18-3,3.7Z"></path><path class="cls-1" d="M94.23,72.4l2.41,1.35c1.06-1.77,1.16-3.47.86-4.07-.5-1-1.81-1.1-2.38-2.42a2.13,2.13,0,0,1,.48-2.09l-1.75-1.38a4,4,0,0,0-1.32,2.72c.27,1.78,2.32,2.43,2.26,3.91,0,.54-.8,1.24-1.19,1.63Z"></path><ellipse class="cls-1" cx="40.02" cy="78.75" rx="3.74" ry="1.88" transform="translate(-36.45 34.53) rotate(-33.02)"></ellipse><ellipse class="cls-1" cx="36.62" cy="84.29" rx="2.82" ry="1.42" transform="translate(-40.02 33.57) rotate(-33.02)"></ellipse><path class="cls-1" d="M30.44,87.55a7.13,7.13,0,0,1,1.86-1.86,5.39,5.39,0,0,1,2-1.09,1,1,0,0,0,1,1.6,5.19,5.19,0,0,0-2.41,2.1"></path><ellipse class="cls-1" cx="99.19" cy="76.15" rx="1.88" ry="3.74" transform="translate(-15.4 126.23) rotate(-61.12)"></ellipse><ellipse class="cls-1" cx="102.98" cy="81.43" rx="1.42" ry="2.82" transform="translate(-18.06 132.27) rotate(-61.12)"></ellipse><path class="cls-1" d="M109.38,84.24a7.39,7.39,0,0,0-2-1.73,5.34,5.34,0,0,0-2.12-.93,1,1,0,0,1-.88,1.67,5.6,5.6,0,0,1,2.76,1.92"></path><circle class="cls-2" cx="53.01" cy="56.97" r="3.28"></circle><circle class="cls-2" cx="63.94" cy="40.05" r="3.33"></circle><circle class="cls-2" cx="96.29" cy="61.5" r="2.25"></circle><circle class="cls-3" cx="96.34" cy="61.55" r="1.52"></circle><circle class="cls-3" cx="53.01" cy="56.97" r="1.52"></circle><circle class="cls-3" cx="63.95" cy="41.08" r="1.52"></circle><path class="cls-4" d="M94.43,106.21c-2,4.86-10,11.37-23,12.05S50,114,47.35,108.69s10-11.37,23-12.06S96.7,100.68,94.43,106.21Z"></path><path class="cls-2" d="M71.49,103.11l-.34-6.57c1.48-.05,3,0,4.41,0L75.9,103l-4.4.24Z"></path><path class="cls-2" d="M69.93,103.19l-.35-6.56c-1.48.1-3,.28-4.39.51l.34,6.42,4.4-.23Z"></path><ellipse class="cls-5" cx="47.04" cy="81.38" rx="4.75" ry="3.23" transform="translate(-35.11 35.71) rotate(-30.9)"></ellipse><ellipse class="cls-5" cx="43.71" cy="88.52" rx="2.39" ry="1.6" transform="matrix(0.86, -0.51, 0.51, 0.86, -39.25, 35.01)"></ellipse><ellipse class="cls-5" cx="98.78" cy="92.23" rx="4.75" ry="3.23" transform="translate(-28.23 138.42) rotate(-63.02)"></ellipse><ellipse class="cls-5" cx="102.98" cy="98.88" rx="3.23" ry="2.09" transform="translate(-36.16 66.92) rotate(-30.9)"></ellipse></g></g></svg>