<svg xmlns="http://www.w3.org/2000/svg" viewBox="24.479999542236328 29.610000610351562 94.85000610351562 99.22361755371094"><defs><style>.cls-1{fill:#0e7575;}.cls-1,.cls-10,.cls-11,.cls-12,.cls-13,.cls-14,.cls-15,.cls-2,.cls-3,.cls-6,.cls-9{stroke:#000;}.cls-1,.cls-10,.cls-11,.cls-12,.cls-13,.cls-14,.cls-15,.cls-16,.cls-17,.cls-2,.cls-3,.cls-4,.cls-5,.cls-6,.cls-7,.cls-8,.cls-9{stroke-miterlimit:10;}.cls-1,.cls-3,.cls-4,.cls-6,.cls-8,.cls-9{stroke-width:0.5px;}.cls-2,.cls-3{fill:#fff;}.cls-4,.cls-5{stroke:#fff;}.cls-7,.cls-8{fill:#0e7f7c;stroke:#0e7f7c;}.cls-11,.cls-16,.cls-17,.cls-9{fill:none;}.cls-10{stroke-width:3px;}.cls-11{stroke-width:5px;}.cls-12,.cls-15{fill:#898989;}.cls-13{fill:#585959;}.cls-14{fill:#595959;}.cls-14,.cls-15,.cls-17{stroke-width:2px;}.cls-16{stroke:#550593;stroke-width:10px;}.cls-17{stroke:#8100cc;}</style></defs><g id="Layer_2" data-name="Layer 2"><g id="characters"><path class="cls-1" d="M53.7,109c5.13-4,13.71-5.41,22.51-3C88.73,109.44,97,119.21,94.6,127.85l-.12.42c-2.11.09.63.13-3,0a88.31,88.31,0,0,1-22.25-3.8,59.93,59.93,0,0,1-15-6.28c-2.71-1.59-3.39-1.76-4.88-3A12.37,12.37,0,0,1,53.7,109Z"></path><ellipse class="cls-1" cx="80.15" cy="89.18" rx="27.36" ry="38.67" transform="translate(-24.03 148.54) rotate(-77.73)"></ellipse><circle class="cls-1" cx="115.02" cy="64.26" r="4.31"></circle><circle class="cls-1" cx="88.9" cy="35.13" r="5.38"></circle><path class="cls-1" d="M77.47,49a4.5,4.5,0,0,1-5.36,3.44,4.73,4.73,0,0,1-3.54-4.15,3.88,3.88,0,0,1,.1-1.21A4.75,4.75,0,0,1,74,43.62,4.5,4.5,0,0,1,77.47,49Z"></path><path class="cls-1" d="M60.08,62.27a6.46,6.46,0,0,1,.06-3.14,5.94,5.94,0,0,1,2.16-3,8,8,0,0,1,3-1.14c2.77-.66,4.05-.34,4.69-1.28a3.29,3.29,0,0,0,.34-2l2.12.86a3.22,3.22,0,0,1-1.56,2.57c-1.74,1.27-2.79.77-4.15,2A4.9,4.9,0,0,0,65.27,60a9.05,9.05,0,0,0,.13,2.13l-5,1.32A8.28,8.28,0,0,1,60.08,62.27Z"></path><path class="cls-1" d="M78.83,61.38l-.24,0a20.26,20.26,0,0,1,3.46-3.46c4.42-3.32,7.76-2.66,9-5.26a6.14,6.14,0,0,0-.87-5.7c-1.65-2.28-4.31-2.07-5.09-4.21a5,5,0,0,1,.45-3.43l.18.06L89,40.47a3.61,3.61,0,0,0-.12,2.38c.48,1,1.69,1.24,2.55,1.66,2.43,1.17,3.9,5,3.39,8.35-.73,4.71-5.22,6.7-5.49,6.82-1.3,1.22-2.61,1.54-3.91,2.76Z"></path><path class="cls-1" d="M109.08,74.18l2,1.93A5.24,5.24,0,0,0,113,72.42c-.22-1.12-1.45-1.54-1.66-3a2.13,2.13,0,0,1,1-1.88L111,65.78a4,4,0,0,0-2,2.27c-.21,1.79,1.6,3,1.15,4.36-.16.52-1.1,1-1.57,1.26Z"></path><circle class="cls-2" cx="73.43" cy="48.45" r="3.28"></circle><circle class="cls-3" cx="88.42" cy="35.03" r="3.33"></circle><circle class="cls-3" cx="113.93" cy="64.22" r="2.25"></circle><circle class="cls-4" cx="113.54" cy="64.52" r="1.52"></circle><circle class="cls-5" cx="73.24" cy="49.12" r="1.52"></circle><circle class="cls-5" cx="88.15" cy="36.02" r="1.52"></circle><path class="cls-6" d="M96.15,111.66c-2.29-.1-6.76-2.74-19.46-5.5s-14.24-.83-16.44-1.77,4.51-2.23,17.22.53S98.74,111.76,96.15,111.66Z"></path><path class="cls-2" d="M77.55,108.48l.73-3.39c1.45.32,2.88.68,4.28,1.07l-.73,3.33-4.3-.94Z"></path><path class="cls-2" d="M76,108.14l.73-3.39c-1.45-.3-2.9-.56-4.33-.79l-.73,3.32,4.31.94Z"></path><ellipse class="cls-7" cx="49.57" cy="87.69" rx="3.23" ry="4.75" transform="translate(-46.17 119) rotate(-78.63)"></ellipse><ellipse class="cls-7" cx="56.83" cy="84.65" rx="1.6" ry="2.39" transform="translate(-37.36 123.67) rotate(-78.63)"></ellipse><ellipse class="cls-8" cx="108.23" cy="94.48" rx="4.75" ry="3.23" transform="translate(-34.48 111.02) rotate(-47.73)"></ellipse><ellipse class="cls-8" cx="110.53" cy="102" rx="3.22" ry="2.09" transform="translate(-23.37 33.5) rotate(-15.61)"></ellipse><ellipse class="cls-7" cx="54.23" cy="98.08" rx="4.75" ry="3.23" transform="translate(-45.75 47.44) rotate(-34.2)"></ellipse><ellipse class="cls-7" cx="57.14" cy="90.77" rx="2.39" ry="1.6" transform="translate(-41.14 47.81) rotate(-34.2)"></ellipse><path class="cls-9" d="M84.66,29.61a5.73,5.73,0,0,0,2.1,3c2.06,1.43,5.16,1.21,7.69-.63"></path><path class="cls-9" d="M69.66,42.76a5.68,5.68,0,0,0,2.1,3c2.06,1.43,5.16,1.21,7.69-.63"></path><path class="cls-9" d="M112,59.84a4.45,4.45,0,0,0,1.23,2.53,5.2,5.2,0,0,0,6,.49"></path><ellipse class="cls-10" cx="78.3" cy="97.01" rx="0.69" ry="0.29" transform="translate(-32.24 154.65) rotate(-78.63)"></ellipse><ellipse class="cls-10" cx="81.53" cy="98.17" rx="0.69" ry="0.29" transform="translate(-30.79 158.75) rotate(-78.63)"></ellipse><line class="cls-11" x1="73.65" y1="128.17" x2="32.68" y2="68.29"></line><polygon class="cls-12" points="29.75 75.08 24.48 56.32 32.68 68.29 29.75 75.08"></polygon><polygon class="cls-13" points="39.45 67.48 24.75 56.09 32.94 68.06 39.45 67.48"></polygon><line class="cls-7" x1="61.24" y1="63.8" x2="55.59" y2="74.46"></line><line class="cls-7" x1="65.06" y1="69.83" x2="55.59" y2="74.46"></line><line class="cls-7" x1="70.63" y1="79.62" x2="65.06" y2="69.83"></line><line class="cls-7" x1="79.94" y1="82.02" x2="70.63" y2="79.62"></line><ellipse class="cls-8" cx="88.03" cy="93.61" rx="3.23" ry="4.75" transform="matrix(0.99, -0.13, 0.13, 0.99, -11.07, 11.81)"></ellipse><ellipse class="cls-7" cx="80.82" cy="90.47" rx="3.22" ry="2.09" transform="translate(-35.27 125.69) rotate(-65.1)"></ellipse><line class="cls-8" x1="97.09" y1="105.52" x2="102.63" y2="95.72"></line><line class="cls-8" x1="99.81" y1="114.74" x2="97.09" y2="105.52"></line><ellipse class="cls-14" cx="50.91" cy="108.6" rx="17.92" ry="22.13" transform="translate(-60.77 64.84) rotate(-43.49)"></ellipse><ellipse class="cls-15" cx="50.54" cy="108.47" rx="9.21" ry="11.38" transform="translate(-60.78 64.56) rotate(-43.49)"></ellipse></g></g></svg>