<svg xmlns="http://www.w3.org/2000/svg" viewBox="27.650972366333008 16.18000030517578 89.03927612304688 111.57898712158203"><defs><style>.cls-1{fill:#0e7575;}.cls-1,.cls-4,.cls-6,.cls-7,.cls-8{stroke:#000;}.cls-1,.cls-10,.cls-2,.cls-3,.cls-4,.cls-5,.cls-6,.cls-7,.cls-8,.cls-9{stroke-miterlimit:10;}.cls-1,.cls-2,.cls-3,.cls-4,.cls-5,.cls-6,.cls-7,.cls-8{stroke-width:0.5px;}.cls-10,.cls-2,.cls-8,.cls-9{fill:none;}.cls-2{stroke:#eac800;}.cls-3{fill:#0e7f7c;stroke:#0e7f7c;}.cls-4{fill:#fff;}.cls-5{stroke:#fff;}.cls-7{fill:#c6c6c6;}.cls-9{stroke:#550593;stroke-width:10px;}.cls-10{stroke:#8100cc;stroke-width:2px;}</style></defs><g id="Layer_2" data-name="Layer 2"><g id="characters"><path class="cls-1" d="M51.22,113.76l20.64,13.76,23.48-15.79,0,0c-5.14-4.56-13.42-7.29-22.59-6.8-9,.47-16.81,3.92-21.47,8.84"></path><ellipse class="cls-2" cx="109.3" cy="66.01" rx="1.21" ry="3.24" transform="translate(-8.44 16.59) rotate(-8.36)"></ellipse><ellipse class="cls-1" cx="72.17" cy="85.43" rx="44.55" ry="31.52" transform="translate(-4.4 3.92) rotate(-3.02)"></ellipse><circle class="cls-1" cx="103.35" cy="47.13" r="4.96"></circle><circle class="cls-1" cx="68.97" cy="22.38" r="6.2"></circle><path class="cls-1" d="M46.22,44.09a5.19,5.19,0,0,1-3.66,6.36,5.44,5.44,0,0,1-5.82-2.37,4.37,4.37,0,0,1-.54-1.29c-.47-2.09.53-5.51,3.66-6.36A5.2,5.2,0,0,1,46.22,44.09Z"></path><path class="cls-1" d="M35.46,66.9a7.36,7.36,0,0,1-1.6-3.24,6.87,6.87,0,0,1,.6-4.25A8.91,8.91,0,0,1,37,56.63c2.49-2.15,4-2.5,4.12-3.8a3.75,3.75,0,0,0-.73-2.26L43,50.34a3.75,3.75,0,0,1-.24,3.45C41.66,56,40.31,56.05,39.58,58a5.61,5.61,0,0,0,0,3.75,9.68,9.68,0,0,0,1.27,2.11l-4.42,4A8.62,8.62,0,0,1,35.46,66.9Z"></path><path class="cls-1" d="M77,53.75h.27a22.69,22.69,0,0,0-3.5-4.41c-4.62-4.39-8.53-4.08-9.56-7.21-.71-2.19.36-4.9,1.74-6.41,2.2-2.39,5.21-1.8,6.39-4.15a5.82,5.82,0,0,0-.07-4l-.21,0-4,.86a4.07,4.07,0,0,1-.18,2.73c-.68,1.14-2.1,1.2-3.13,1.56-2.93,1-5.13,5.25-5,9.12.21,5.49,5.09,8.36,5.38,8.52C66.52,52,68,52.52,69.3,54.08Z"></path><path class="cls-1" d="M99.76,60l2.77,1.56c1.23-2,1.34-4,1-4.68-.58-1.18-2.08-1.28-2.75-2.79a2.49,2.49,0,0,1,.55-2.41l-2-1.58a4.57,4.57,0,0,0-1.53,3.13c.31,2,2.68,2.79,2.61,4.49,0,.63-.93,1.43-1.37,1.88Z"></path><ellipse class="cls-3" cx="108.61" cy="90.44" rx="3.71" ry="2.41" transform="translate(-31.03 68.61) rotate(-30.9)"></ellipse><circle class="cls-4" cx="40.62" cy="45.95" r="3.78"></circle><circle class="cls-4" cx="70.73" cy="22.14" r="3.83"></circle><circle class="cls-4" cx="102.53" cy="47.02" r="2.59"></circle><circle class="cls-5" cx="102.59" cy="47.07" r="1.75"></circle><circle class="cls-5" cx="40.62" cy="45.95" r="1.75"></circle><circle class="cls-5" cx="70.9" cy="23.31" r="1.75"></circle><path class="cls-6" d="M98.17,98.38c-2.45,2.73-10.94,10.54-25.9,11.33s-27.42-6.5-23.48-7.28,8.38-1.12,23.34-1.91S101,95.28,98.17,98.38Z"></path><path class="cls-4" d="M72.87,104.43l-.19-3.58c1.7-.08,3.4-.12,5.07-.13l.19,3.52-5.07.27Z"></path><path class="cls-4" d="M71.06,104.53l-.18-3.59c-1.71.11-3.4.25-5.06.42l.18,3.51,5.07-.27Z"></path><ellipse class="cls-3" cx="39.39" cy="77.98" rx="5.47" ry="3.72" transform="translate(-34.46 31.3) rotate(-30.9)"></ellipse><ellipse class="cls-3" cx="35.56" cy="86.2" rx="2.75" ry="1.84" transform="matrix(0.86, -0.51, 0.51, 0.86, -39.22, 30.5)"></ellipse><ellipse class="cls-3" cx="103.78" cy="82.79" rx="5.47" ry="3.72" transform="translate(-17.08 137.72) rotate(-63.02)"></ellipse><circle class="cls-6" cx="66.02" cy="87.74" r="0.81"></circle><circle class="cls-6" cx="74.12" cy="86.93" r="0.81"></circle><ellipse class="cls-3" cx="102.67" cy="71.52" rx="2.75" ry="1.84" transform="translate(-22.15 62.88) rotate(-30.9)"></ellipse><circle class="cls-2" cx="102.42" cy="47.18" r="3.84"></circle><circle class="cls-2" cx="105.46" cy="51.43" r="1.21"></circle><ellipse class="cls-2" cx="107.07" cy="55.07" rx="1.21" ry="3.24" transform="translate(-11.92 36.67) rotate(-18.43)"></ellipse><ellipse class="cls-2" cx="108.49" cy="60.74" rx="1.21" ry="3.24" transform="translate(-7.68 16.42) rotate(-8.36)"></ellipse><polygon class="cls-4" points="86.84 112.95 71.86 127.52 95.34 111.73 86.84 112.95"></polygon><polygon class="cls-4" points="56.48 114.16 71.86 127.52 51.22 113.76 56.48 114.16"></polygon><path class="cls-7" d="M71.86,127.52l23.46-15.77a15,15,0,0,1,5.42,10.41c0,.17,0,.34,0,.51-2.27.86.73-.09-3.33,1.07a101.56,101.56,0,0,1-25.71,3.9,69.11,69.11,0,0,1-18.65-1.44c-3.54-.77-4.35-.7-6.4-1.47a14.22,14.22,0,0,1,2.52-8.35,18.51,18.51,0,0,1,2.07-2.59l20.6,13.73"></path><line class="cls-8" x1="74.29" y1="87.05" x2="66.2" y2="87.86"></line></g></g></svg>