<svg xmlns="http://www.w3.org/2000/svg" viewBox="30.627531051635742 18.689998626708984 91.29432678222656 109.59999084472656"><defs><style>.cls-1,.cls-8,.cls-9{fill:none;}.cls-1,.cls-2,.cls-3,.cls-5,.cls-7{stroke:#000;}.cls-1,.cls-2,.cls-3,.cls-4,.cls-5,.cls-6,.cls-7,.cls-8,.cls-9{stroke-miterlimit:10;}.cls-1,.cls-2,.cls-3,.cls-4,.cls-5,.cls-6,.cls-7{stroke-width:0.5px;}.cls-2{fill:#fcfcfc;}.cls-3{fill:#0e7575;}.cls-4{fill:#0e7f7c;stroke:#0e7f7c;}.cls-5{fill:#fff;}.cls-6{stroke:#fff;}.cls-8{stroke:#550593;stroke-width:10px;}.cls-9{stroke:#8100cc;stroke-width:2px;}</style></defs><g id="Layer_2" data-name="Layer 2"><g id="characters"><line class="cls-1" x1="91.15" y1="45.88" x2="97.37" y2="38.5"></line><ellipse class="cls-2" cx="86.88" cy="64.34" rx="19.23" ry="35.74" transform="translate(4 133.76) rotate(-76.47)"></ellipse><path class="cls-3" d="M51.3,114.56c4-6,12.51-10.44,22.59-11,14.33-.75,26.37,6.65,26.89,16.53,0,.16,0,.32,0,.49-2.18.83.7-.09-3.19,1a97.54,97.54,0,0,1-24.68,3.74A66.6,66.6,0,0,1,55,124c-3.39-.74-4.17-.68-6.14-1.41A13.65,13.65,0,0,1,51.3,114.56Z"></path><path class="cls-3" d="M100.11,102.74l0,0a4.55,4.55,0,0,1,4.68-2c2.61.47,3.44,3.91,3.48,4a38.75,38.75,0,0,0-2.94,4.19,23.93,23.93,0,0,0-3.13,7.92c-.76,4.42.8,5.61.12,10.52l-8,.92h0A18.55,18.55,0,0,0,96.58,121c.24-2.65-.23-4.54.78-7.24a32,32,0,0,1,3.38-5.68C99.81,106.65,99.26,104.18,100.11,102.74Z"></path><path class="cls-3" d="M112.78,102.16c-2.15,3.6-3.82,5.22-4.93,5.43-1.72.33-4.48-1-5-2.49a21.95,21.95,0,0,0,9.79-8.55c-.63-3.1.47-5.45,1-5.9.21-.17.8-.53,1.75-1.28.34-.28.55-1.05.72-1.13a1,1,0,0,0,.39.05,1.34,1.34,0,0,0,.93-.54,12.05,12.05,0,0,1,0,3.22,26.43,26.43,0,0,1-3.09,8.27C113.83,100.33,113.29,101.3,112.78,102.16Z"></path><ellipse class="cls-3" cx="73.36" cy="84.85" rx="42.76" ry="30.26" transform="translate(-4.37 3.99) rotate(-3.02)"></ellipse><circle class="cls-3" cx="103.29" cy="48.09" r="4.76"></circle><circle class="cls-3" cx="66.93" cy="24.64" r="5.95"></circle><path class="cls-3" d="M58.78,42.74A5,5,0,0,1,54.07,48a5.2,5.2,0,0,1-5-3.39,4.07,4.07,0,0,1-.25-1.32c0-2.06,1.6-5.07,4.71-5.24A5,5,0,0,1,58.78,42.74Z"></path><path class="cls-3" d="M44.11,62a7.15,7.15,0,0,1-.86-3.36,6.71,6.71,0,0,1,1.42-3.87,8.51,8.51,0,0,1,2.93-2.1c2.76-1.52,4.21-1.56,4.62-2.74A3.58,3.58,0,0,0,52,47.65L54.5,48a3.55,3.55,0,0,1-.91,3.19c-1.48,1.86-2.75,1.63-3.84,3.34A5.43,5.43,0,0,0,49,58a9.82,9.82,0,0,0,.77,2.24L44.79,63.1A7.59,7.59,0,0,1,44.11,62Z"></path><path class="cls-3" d="M63.84,55.58l-.26,0a22.72,22.72,0,0,1,2.68-4.7c3.75-4.83,7.5-5.1,8-8.23.36-2.18-1-4.59-2.58-5.82-2.43-2-5.21-1-6.67-3a5.66,5.66,0,0,1-.52-3.79h.22l3.91.23a4,4,0,0,0,.57,2.57c.81,1,2.17.83,3.2,1,2.93.55,5.63,4.24,6,7.92.6,5.24-3.61,8.68-3.87,8.88-1,1.68-2.33,2.4-3.36,4.08Z"></path><path class="cls-3" d="M99.85,60.41l2.65,1.49c1.18-2,1.28-3.84,1-4.5-.56-1.13-2-1.22-2.64-2.68a2.39,2.39,0,0,1,.53-2.3L99.43,50.9a4.42,4.42,0,0,0-1.47,3c.3,2,2.57,2.68,2.51,4.31,0,.61-.89,1.38-1.32,1.81Z"></path><ellipse class="cls-3" cx="116.31" cy="84.17" rx="2.08" ry="4.13" transform="translate(-4.87 7.17) rotate(-3.46)"></ellipse><ellipse class="cls-4" cx="108.34" cy="89.66" rx="3.56" ry="2.31" transform="translate(-30.67 68.36) rotate(-30.9)"></ellipse><ellipse class="cls-3" cx="113.63" cy="90.82" rx="1.57" ry="3.12" transform="translate(-5.27 7.02) rotate(-3.46)"></ellipse><path class="cls-3" d="M114.79,98.46a8,8,0,0,0,.43-2.88,5.91,5.91,0,0,0-.37-2.53,1.34,1.34,0,0,1-1,.88,1.32,1.32,0,0,1-1.08-.71,6.16,6.16,0,0,1-.16,3.71"></path><circle class="cls-5" cx="53.15" cy="43.36" r="3.63"></circle><circle class="cls-5" cx="65.23" cy="24.67" r="3.68"></circle><circle class="cls-5" cx="102.5" cy="47.98" r="2.49"></circle><circle class="cls-6" cx="102.56" cy="48.03" r="1.68"></circle><circle class="cls-6" cx="53.15" cy="43.36" r="1.68"></circle><circle class="cls-6" cx="65.23" cy="25.81" r="1.68"></circle><path class="cls-7" d="M99.7,97.16c-2.35,2.63-11.81,13.15-26.17,13.91s-17.7-3.81-20.45-6.52,5.49-4.07,19.85-4.83S102.38,94.19,99.7,97.16Z"></path><path class="cls-5" d="M74,103.09l-.18-3.44c1.63-.07,3.26-.11,4.87-.12l.18,3.38-4.87.25Z"></path><path class="cls-5" d="M72.3,103.18l-.18-3.44c-1.64.1-3.27.24-4.86.4l.18,3.37,4.86-.25Z"></path><ellipse class="cls-4" cx="41.89" cy="77.7" rx="5.25" ry="3.57" transform="translate(-33.96 32.54) rotate(-30.9)"></ellipse><ellipse class="cls-4" cx="38.22" cy="85.59" rx="2.64" ry="1.77" transform="translate(-38.53 31.77) rotate(-30.9)"></ellipse><ellipse class="cls-4" cx="103.7" cy="82.31" rx="5.25" ry="3.57" transform="translate(-16.7 137.39) rotate(-63.02)"></ellipse><circle class="cls-7" cx="67.46" cy="87.06" r="0.78"></circle><circle class="cls-7" cx="75.23" cy="86.29" r="0.78"></circle><ellipse class="cls-4" cx="102.64" cy="71.5" rx="2.64" ry="1.77" transform="matrix(0.86, -0.51, 0.51, 0.86, -22.15, 62.86)"></ellipse></g></g></svg>