<svg xmlns="http://www.w3.org/2000/svg" viewBox="29.549863815307617 19.18000030517578 83.46308135986328 107.62837982177734"><defs><style>.cls-1{fill:#0e7575;}.cls-1,.cls-3,.cls-5,.cls-6,.cls-7,.cls-8{stroke:#000;}.cls-1,.cls-10,.cls-2,.cls-3,.cls-4,.cls-5,.cls-6,.cls-7,.cls-8,.cls-9{stroke-miterlimit:10;}.cls-1,.cls-2,.cls-3,.cls-4,.cls-5,.cls-6,.cls-7,.cls-8{stroke-width:0.5px;}.cls-2{fill:#0e7f7c;stroke:#0e7f7c;}.cls-3{fill:#fff;}.cls-4{stroke:#fff;}.cls-6{fill:#cd00ff;}.cls-7{fill:#9420c4;}.cls-10,.cls-8,.cls-9{fill:none;}.cls-9{stroke:#550593;stroke-width:10px;}.cls-10{stroke:#8100cc;stroke-width:2px;}</style></defs><g id="Layer_2" data-name="Layer 2"><g id="characters"><path class="cls-1" d="M51.64,113.69,71,126.59l22-14.8,0,0c-4.82-4.28-12.58-6.84-21.18-6.38-8.43.44-15.75,3.68-20.13,8.29"></path><ellipse class="cls-1" cx="71.28" cy="87.13" rx="41.76" ry="29.55" transform="translate(-4.49 3.88) rotate(-3.02)"></ellipse><circle class="cls-1" cx="100.51" cy="51.23" r="4.65"></circle><circle class="cls-1" cx="68.27" cy="28.03" r="5.81"></circle><path class="cls-1" d="M47,48.38a4.87,4.87,0,0,1-3.43,6,5.1,5.1,0,0,1-5.46-2.22,4,4,0,0,1-.5-1.21c-.45-2,.49-5.17,3.43-6A4.87,4.87,0,0,1,47,48.38Z"></path><path class="cls-1" d="M36.86,69.76a6.94,6.94,0,0,1-1.5-3,6.48,6.48,0,0,1,.57-4,8.31,8.31,0,0,1,2.36-2.61c2.33-2,3.71-2.34,3.86-3.56a3.56,3.56,0,0,0-.68-2.11l2.46-.23a3.47,3.47,0,0,1-.23,3.24c-1,2.08-2.29,2.12-3,4a5.21,5.21,0,0,0,0,3.52,9.21,9.21,0,0,0,1.19,2l-4.14,3.74A8.25,8.25,0,0,1,36.86,69.76Z"></path><path class="cls-1" d="M75.84,57.43h.26a22.27,22.27,0,0,0-3.28-4.14c-4.34-4.11-8-3.81-9-6.75-.68-2.05.33-4.59,1.63-6,2.05-2.24,4.88-1.69,6-3.89a5.4,5.4,0,0,0-.06-3.73l-.2,0-3.75.8a3.9,3.9,0,0,1-.16,2.57c-.64,1.06-2,1.12-2.94,1.46-2.75,1-4.81,4.92-4.67,8.54.2,5.15,4.77,7.84,5,8,1.24,1.46,2.61,2,3.85,3.44Z"></path><path class="cls-1" d="M97.15,63.26l2.59,1.46c1.15-1.92,1.25-3.75.94-4.39-.55-1.11-2-1.2-2.58-2.62a2.31,2.31,0,0,1,.52-2.25L96.74,54a4.28,4.28,0,0,0-1.43,2.93c.29,1.92,2.51,2.62,2.44,4.22,0,.59-.87,1.34-1.28,1.76Z"></path><ellipse class="cls-2" cx="105.44" cy="91.83" rx="3.48" ry="2.26" transform="matrix(0.86, -0.51, 0.51, 0.86, -32.19, 67.18)"></ellipse><circle class="cls-3" cx="41.7" cy="50.12" r="3.54"></circle><circle class="cls-3" cx="69.93" cy="27.8" r="3.59"></circle><circle class="cls-3" cx="99.74" cy="51.12" r="2.43"></circle><ellipse cx="99.55" cy="51.23" rx="0.75" ry="2.08"></ellipse><circle class="cls-4" cx="41.7" cy="50.12" r="1.64"></circle><circle class="cls-4" cx="70.09" cy="28.9" r="1.64"></circle><path class="cls-5" d="M84,101.49c-4.55,1.9-4.93,1.14-12.52,1.9-14,1.4-17.73-1.16-14-1.9s4.94.38,13.8-.21C85.25,100.33,87.61,100,84,101.49Z"></path><path class="cls-3" d="M71.93,105l-.18-3.36c1.6-.08,3.19-.11,4.76-.12l.18,3.3-4.75.25Z"></path><path class="cls-3" d="M70.24,105l-.18-3.35c-1.59.09-3.18.23-4.74.39l.17,3.29,4.76-.25Z"></path><ellipse class="cls-2" cx="40.54" cy="80.15" rx="5.13" ry="3.49" transform="translate(-35.41 32.2) rotate(-30.9)"></ellipse><ellipse class="cls-2" cx="36.96" cy="87.85" rx="2.58" ry="1.73" transform="translate(-39.87 31.45) rotate(-30.9)"></ellipse><ellipse class="cls-2" cx="100.91" cy="84.65" rx="5.13" ry="3.49" transform="translate(-20.31 136.18) rotate(-63.02)"></ellipse><circle class="cls-5" cx="65.51" cy="89.29" r="0.76"></circle><circle class="cls-5" cx="73.1" cy="88.53" r="0.76"></circle><ellipse class="cls-2" cx="99.87" cy="74.09" rx="2.58" ry="1.73" transform="translate(-23.87 61.81) rotate(-30.9)"></ellipse><polygon class="cls-6" points="85.03 112.93 70.99 126.59 93 111.79 85.03 112.93"></polygon><polygon class="cls-6" points="56.57 114.07 70.99 126.59 51.64 113.69 56.57 114.07"></polygon><path class="cls-7" d="M71,126.59l22-14.78a14,14,0,0,1,5.08,9.75c0,.16,0,.32,0,.48-2.13.81.68-.08-3.12,1a95.84,95.84,0,0,1-24.1,3.66,65,65,0,0,1-17.49-1.36c-3.32-.72-4.07-.66-6-1.37a13.44,13.44,0,0,1,2.36-7.84,18.21,18.21,0,0,1,2-2.43L71,126.59"></path><line class="cls-8" x1="73.27" y1="88.65" x2="65.68" y2="89.41"></line><path class="cls-8" d="M64.08,20.49c.07.34.6,2.87,2.43,3.86a3,3,0,0,0,2.06.32"></path><path class="cls-8" d="M73.67,20.26c-.07.34-.61,2.87-2.43,3.87a3.08,3.08,0,0,1-2.06.32"></path><path class="cls-8" d="M66.83,19.34c0,.35-.23,2.92,1.24,4.39a3,3,0,0,0,1.89.88"></path><path class="cls-8" d="M71,19.18c.07.34.56,2.88-.74,4.5a3.1,3.1,0,0,1-1.77,1.1"></path><path class="cls-8" d="M96.34,44.76a4.66,4.66,0,0,0,1.19,3.48,2.55,2.55,0,0,0,1.59.65"></path><path class="cls-8" d="M104.11,46.43A4.9,4.9,0,0,1,101.38,49a2.64,2.64,0,0,1-1.72-.14"></path><path class="cls-8" d="M98.78,44.39a4.68,4.68,0,0,0,.13,3.66,2.52,2.52,0,0,0,1.35,1.06"></path><path class="cls-8" d="M102.17,45.07a4.69,4.69,0,0,1-1.49,3.37A2.6,2.6,0,0,1,99,49"></path><path class="cls-8" d="M35.23,44.8a5.4,5.4,0,0,0,3.23,2.49,3.68,3.68,0,0,0,2-.15"></path><path class="cls-8" d="M44.35,42.82a4.08,4.08,0,0,1-1.41,3.4,3.47,3.47,0,0,1-1.9.64"></path><path class="cls-8" d="M37.58,43.4a4.5,4.5,0,0,0,2.23,3.11,3.64,3.64,0,0,0,2,.33"></path><path class="cls-8" d="M41.54,42.5c.15.24,1.21,2.09.35,3.57a2.81,2.81,0,0,1-1.44,1.17"></path></g></g></svg>