<svg xmlns="http://www.w3.org/2000/svg" viewBox="17.43663787841797 17.18000030517578 104.11336517333984 111.98572540283203"><defs><style>.cls-10,.cls-11{display: none;}.cls-1{fill:#0e7575;}.cls-1,.cls-2,.cls-4,.cls-6,.cls-7,.cls-8,.cls-9{stroke:#000;}.cls-1,.cls-10,.cls-11,.cls-2,.cls-3,.cls-4,.cls-5,.cls-6,.cls-7,.cls-8,.cls-9{stroke-miterlimit:10;}.cls-1,.cls-2,.cls-3,.cls-4,.cls-5,.cls-6{stroke-width:0.5px;}.cls-2{fill:#fff;}.cls-3{stroke:#fff;}.cls-5{fill:#0e7f7c;stroke:#0e7f7c;}.cls-10,.cls-11,.cls-6,.cls-7{fill:none;}.cls-7{stroke-width:5px;}.cls-8{fill:#898989;}.cls-9{fill:#585959;}.cls-10{stroke:#550593;stroke-width:10px;}.cls-11{stroke:#8100cc;stroke-width:2px;}</style></defs><g id="Layer_2" data-name="Layer 2"><g id="characters"><path class="cls-1" d="M38.68,116.62c4.5-6.06,13.65-10.22,24.21-10.22,15,0,27.19,8.4,27.19,18.75,0,.17,0,.34,0,.51-2.32.75.74,0-3.39.91a102.64,102.64,0,0,1-26,2.55,69.37,69.37,0,0,1-18.64-2.44c-3.51-1-4.32-.93-6.34-1.81A14.34,14.34,0,0,1,38.68,116.62Z"></path><ellipse class="cls-1" cx="62.15" cy="86.41" rx="44.74" ry="31.66" transform="translate(-4.47 3.4) rotate(-3.02)"></ellipse><circle class="cls-1" cx="93.46" cy="47.94" r="4.98"></circle><circle class="cls-1" cx="55.42" cy="23.41" r="6.23"></circle><path class="cls-1" d="M46.89,42.35A5.22,5.22,0,0,1,42,47.83a5.46,5.46,0,0,1-5.22-3.55,4.24,4.24,0,0,1-.26-1.38c0-2.15,1.68-5.31,4.93-5.48A5.22,5.22,0,0,1,46.89,42.35Z"></path><path class="cls-1" d="M31.54,62.49a7.4,7.4,0,0,1-.9-3.52,7,7,0,0,1,1.49-4,9,9,0,0,1,3.06-2.21c2.89-1.58,4.4-1.62,4.84-2.86a3.83,3.83,0,0,0-.24-2.37l2.62.31a3.71,3.71,0,0,1-1,3.34c-1.54,2-2.88,1.71-4,3.51a5.6,5.6,0,0,0-.82,3.67,9.61,9.61,0,0,0,.8,2.34l-5.17,3A7.23,7.23,0,0,1,31.54,62.49Z"></path><path class="cls-1" d="M52.19,55.78l-.28,0a23.9,23.9,0,0,1,2.8-4.91c3.93-5.06,7.86-5.35,8.4-8.61.37-2.28-1.1-4.81-2.71-6.1-2.54-2-5.44-1-7-3.15a5.84,5.84,0,0,1-.54-4h.22l4.09.24A4.19,4.19,0,0,0,57.8,32c.85,1,2.27.87,3.35,1.07,3.06.57,5.89,4.43,6.33,8.29.63,5.48-3.78,9.07-4,9.28-1.08,1.76-2.44,2.52-3.52,4.27Z"></path><path class="cls-1" d="M89.86,60.83l2.78,1.56c1.23-2,1.34-4,1-4.7-.58-1.18-2.09-1.28-2.76-2.8a2.47,2.47,0,0,1,.56-2.41l-2-1.6A4.64,4.64,0,0,0,87.89,54c.31,2.06,2.69,2.81,2.62,4.52,0,.63-.93,1.43-1.38,1.88Z"></path><circle class="cls-2" cx="42.22" cy="42.99" r="3.79"></circle><circle class="cls-2" cx="54.85" cy="23.44" r="3.85"></circle><circle class="cls-2" cx="92.23" cy="48.24" r="2.61"></circle><circle class="cls-3" cx="91.89" cy="48.7" r="1.76"></circle><circle class="cls-3" cx="42.22" cy="43.81" r="1.76"></circle><circle class="cls-3" cx="54.86" cy="24.63" r="1.76"></circle><path class="cls-4" d="M86.86,106.61c-2.58.6-8.37-1-23.4-.2s-16.13,3.43-18.88,3,4.35-3.87,19.38-4.66S89.79,105.94,86.86,106.61Z"></path><path class="cls-2" d="M65.13,108.74l-.21-4c1.71-.08,3.42-.11,5.1-.11l.21,3.94-5.09.27Z"></path><path class="cls-2" d="M63.32,108.83l-.21-4c-1.71.1-3.41.25-5.08.43l.21,3.93,5.09-.27Z"></path><ellipse class="cls-5" cx="38.97" cy="98.44" rx="5.49" ry="3.74" transform="translate(-45.02 33.99) rotate(-30.9)"></ellipse><ellipse class="cls-5" cx="35.13" cy="106.7" rx="2.77" ry="1.85" transform="translate(-49.81 33.18) rotate(-30.9)"></ellipse><ellipse class="cls-5" cx="95.11" cy="83.76" rx="5.49" ry="3.74" transform="translate(-22.68 130.52) rotate(-63.02)"></ellipse><ellipse class="cls-5" cx="99.97" cy="91.44" rx="3.73" ry="2.42" transform="translate(-32.77 64.32) rotate(-30.9)"></ellipse><ellipse class="cls-5" cx="26.89" cy="93.18" rx="5.49" ry="3.74" transform="translate(-69.99 97.52) rotate(-76.47)"></ellipse><ellipse class="cls-5" cx="30.1" cy="101.7" rx="2.77" ry="1.85" transform="translate(-75.82 107.17) rotate(-76.47)"></ellipse><path class="cls-6" d="M49,18.54a6.44,6.44,0,0,0,3.24,2.67c2.74,1,6.13-.22,8.39-3.05"></path><path class="cls-6" d="M36.27,37.79a6.52,6.52,0,0,0,3.25,2.67c2.74,1,6.13-.22,8.39-3.05"></path><path class="cls-6" d="M88.75,43.94a5,5,0,0,0,2.14,2.45c2,1.08,4.71.6,6.79-1.27"></path><ellipse class="cls-4" cx="59.05" cy="96.38" rx="1.97" ry="0.81" transform="translate(-43.78 143.33) rotate(-83.05)"></ellipse><ellipse class="cls-4" cx="67.35" cy="95.42" rx="1.97" ry="0.81" transform="translate(-35.52 150.73) rotate(-83.05)"></ellipse><line class="cls-7" x1="96.71" y1="128.23" x2="115.55" y2="46.42"></line><polygon class="cls-8" points="107.48 49.25 119.32 30.06 115.55 46.42 107.48 49.25"></polygon><polygon class="cls-9" points="121.55 51.55 119.72 30.1 115.95 46.46 121.55 51.55"></polygon><line class="cls-5" x1="49.06" y1="61.08" x2="38.89" y2="70.03"></line><line class="cls-5" x1="51.09" y1="70.03" x2="38.89" y2="70.03"></line><line class="cls-5" x1="51.9" y1="83.04" x2="51.09" y2="70.03"></line><line class="cls-5" x1="44.99" y1="87.91" x2="51.9" y2="83.04"></line></g></g></svg>