<svg xmlns="http://www.w3.org/2000/svg" viewBox="23.890716552734375 9.180000305175781 103.30235290527344 122.10999298095703"><defs><style>.cls-1,.cls-10,.cls-11{fill:none;}.cls-1,.cls-2,.cls-3,.cls-4,.cls-5,.cls-9{stroke:#000;}.cls-1,.cls-10,.cls-11,.cls-2,.cls-3,.cls-4,.cls-5,.cls-6,.cls-7,.cls-8,.cls-9{stroke-miterlimit:10;}.cls-1,.cls-2,.cls-3,.cls-4,.cls-5,.cls-6,.cls-7,.cls-8,.cls-9{stroke-width:0.5px;}.cls-2{fill:#a00bb5;}.cls-3{fill:#0e7575;}.cls-4{fill:#fff;}.cls-5{fill:#c6c6c6;}.cls-6{fill:#0e7f7c;stroke:#0e7f7c;}.cls-7{fill:#b808c1;}.cls-7,.cls-8{stroke:#fff;}.cls-10{stroke:#550593;stroke-width:10px;}.cls-11{stroke:#8100cc;stroke-width:2px;}</style></defs><g id="Layer_2" data-name="Layer 2"><g id="characters"><line class="cls-1" x1="92.29" y1="40.02" x2="99.34" y2="31.65"></line><ellipse class="cls-2" cx="87.44" cy="60.95" rx="21.81" ry="40.54" transform="translate(7.73 131.71) rotate(-76.47)"></ellipse><path class="cls-3" d="M47.09,117.91c4.52-6.82,14.19-11.84,25.62-12.45,16.26-.85,29.91,7.54,30.5,18.74,0,.19,0,.37,0,.56-2.47.94.8-.1-3.62,1.17a110.22,110.22,0,0,1-28,4.24,75.09,75.09,0,0,1-20.31-1.57c-3.85-.83-4.73-.76-7-1.6A15.48,15.48,0,0,1,47.09,117.91Z"></path><path class="cls-3" d="M49.21,115l22.47,15,25.55-17.19,0,0c-5.59-5-14.6-7.94-24.59-7.41-9.79.52-18.3,4.28-23.38,9.63"></path><polygon class="cls-4" points="87.98 114.08 71.68 129.94 97.23 112.75 87.98 114.08"></polygon><polygon class="cls-4" points="54.93 115.4 71.68 129.94 49.21 114.96 54.93 115.4"></polygon><path class="cls-5" d="M71.68,129.94l25.53-17.17a16.29,16.29,0,0,1,5.9,11.33c0,.19,0,.37,0,.56-2.47.94.8-.1-3.61,1.17a110.83,110.83,0,0,1-28,4.24,75,75,0,0,1-20.3-1.57c-3.86-.83-4.74-.77-7-1.6A15.48,15.48,0,0,1,47,117.81,21.24,21.24,0,0,1,49.25,115l22.43,15"></path><path class="cls-3" d="M103.77,102.3l0,0a5.17,5.17,0,0,1,5.32-2.26c3,.53,3.89,4.43,3.93,4.56a43.12,43.12,0,0,0-3.32,4.75,26.65,26.65,0,0,0-3.55,9c-.87,5,.9,6.37.12,11.94l-9.07,1h0A21.07,21.07,0,0,0,99.77,123c.26-3-.27-5.14.88-8.2a35.86,35.86,0,0,1,3.83-6.44C103.43,106.74,102.81,103.93,103.77,102.3Z"></path><path class="cls-3" d="M116.81,103.85c-2.43,4.08-4.32,5.92-5.59,6.16-2,.37-5.07-1.16-5.7-2.83a24.67,24.67,0,0,0,3.63-2,25.46,25.46,0,0,0,7.48-7.71c-.71-3.52.53-6.18,1.17-6.7.24-.19.92-.6,2-1.45.39-.31.63-1.19.83-1.28a1.3,1.3,0,0,0,.44,0,1.51,1.51,0,0,0,1.06-.6,14.39,14.39,0,0,1,0,3.64c-.6,3.1-1.26,5-3.51,9.39C118,101.78,117.39,102.88,116.81,103.85Z"></path><ellipse class="cls-3" cx="72.36" cy="84.62" rx="48.5" ry="34.32" transform="translate(-4.36 3.93) rotate(-3.02)"></ellipse><circle class="cls-3" cx="106.06" cy="42.53" r="5.4"></circle><circle class="cls-3" cx="64.82" cy="15.93" r="6.75"></circle><path class="cls-3" d="M55.58,36.46a5.66,5.66,0,0,1-5.35,5.94,5.9,5.9,0,0,1-5.65-3.85,4.55,4.55,0,0,1-.28-1.49c0-2.34,1.81-5.75,5.34-5.94A5.65,5.65,0,0,1,55.58,36.46Z"></path><path class="cls-3" d="M38.93,58.29a8.14,8.14,0,0,1-1-3.81,7.57,7.57,0,0,1,1.61-4.39,10,10,0,0,1,3.32-2.39C46,46,47.67,45.94,48.14,44.6A4.11,4.11,0,0,0,47.88,42l2.84.34a4.05,4.05,0,0,1-1,3.62c-1.68,2.12-3.13,1.86-4.35,3.8a6.14,6.14,0,0,0-.9,4,11,11,0,0,0,.87,2.54L39.7,59.55A9.74,9.74,0,0,1,38.93,58.29Z"></path><path class="cls-3" d="M61.32,51l-.3,0a25.33,25.33,0,0,1,3-5.32c4.25-5.49,8.51-5.8,9.09-9.34.41-2.47-1.19-5.21-2.93-6.6-2.75-2.22-5.9-1.09-7.55-3.42-.89-1.24-.76-3.17-.59-4.3l.24,0,4.44.26a4.49,4.49,0,0,0,.64,2.91c.92,1.11,2.46.95,3.63,1.16,3.32.62,6.39,4.8,6.87,9,.68,5.94-4.1,9.83-4.39,10.06-1.17,1.91-2.64,2.72-3.81,4.63Z"></path><path class="cls-3" d="M102.15,56.49l3,1.7c1.34-2.23,1.45-4.35,1.09-5.1-.63-1.28-2.27-1.39-3-3a2.68,2.68,0,0,1,.6-2.61l-2.18-1.73a5,5,0,0,0-1.67,3.4c.34,2.23,2.92,3,2.84,4.9,0,.68-1,1.55-1.49,2Z"></path><ellipse class="cls-3" cx="120.83" cy="83.45" rx="2.35" ry="4.69" transform="translate(-4.82 7.44) rotate(-3.46)"></ellipse><ellipse class="cls-6" cx="111.78" cy="89.67" rx="4.04" ry="2.62" transform="translate(-30.18 70.13) rotate(-30.9)"></ellipse><ellipse class="cls-3" cx="117.78" cy="90.99" rx="1.78" ry="3.54" transform="translate(-5.28 7.27) rotate(-3.46)"></ellipse><path class="cls-3" d="M119.1,99.65a9,9,0,0,0,.49-3.26,6.63,6.63,0,0,0-.43-2.87c-.28.59-.68,1-1.14,1a1.44,1.44,0,0,1-1.22-.81,7.13,7.13,0,0,1-.18,4.22"></path><circle class="cls-4" cx="49.19" cy="37.16" r="4.11"></circle><circle class="cls-4" cx="62.88" cy="15.96" r="4.17"></circle><circle class="cls-4" cx="105.16" cy="42.4" r="2.82"></circle><circle class="cls-7" cx="105.23" cy="42.46" r="1.9"></circle><circle class="cls-8" cx="49.19" cy="37.16" r="1.9"></circle><circle class="cls-8" cx="62.89" cy="17.26" r="1.9"></circle><path class="cls-9" d="M97.05,98.71c-2.68,3-7.51,12.36-23.8,13.22S51,108.8,49,104.88c-1.76-3.52,6.31-2.94,22.6-3.8S100.08,95.34,97.05,98.71Z"></path><path class="cls-4" d="M72.87,104.91,72.66,101c1.85-.08,3.7-.13,5.53-.13l.2,3.83-5.52.29Z"></path><path class="cls-4" d="M70.9,105l-.2-3.9c-1.86.11-3.7.26-5.51.45l.2,3.82,5.52-.29Z"></path><ellipse class="cls-6" cx="100.99" cy="92.11" rx="3" ry="2" transform="translate(-32.97 64.93) rotate(-30.9)"></ellipse><ellipse class="cls-6" cx="106.52" cy="81.34" rx="5.95" ry="4.05" transform="translate(-14.29 139.37) rotate(-63.02)"></ellipse><circle class="cls-9" cx="65.41" cy="86.73" r="0.88"></circle><circle class="cls-9" cx="74.23" cy="85.85" r="0.88"></circle><ellipse class="cls-6" cx="105.31" cy="69.07" rx="3" ry="2" transform="translate(-20.52 63.89) rotate(-30.9)"></ellipse><ellipse class="cls-6" cx="106.74" cy="101.28" rx="4.11" ry="2.58" transform="translate(-36.86 69.19) rotate(-30.9)"></ellipse></g></g></svg>