<svg xmlns="http://www.w3.org/2000/svg" viewBox="0 0 62.17 58.79"><defs><style>.cls-1{fill:#444343;}.cls-1,.cls-2{stroke:#000;stroke-miterlimit:10;}.cls-2{fill:#353535;}</style></defs><g id="Layer_2" data-name="Layer 2"><g id="extra_assets" data-name="extra assets"><path class="cls-1" d="M61.23,29.39c-2,3-.41,3.81-.57,5.59A17.54,17.54,0,0,1,59,40.21a26,26,0,0,1-1.65,3.24,16.22,16.22,0,0,1-3.44,3.83c-1.21,1.13-1.9,2.8-3.18,3.86a31.26,31.26,0,0,1-3.88,2.71A29.19,29.19,0,0,1,43,55.8a32,32,0,0,1-6.27,1.89,30.87,30.87,0,0,1-3.36.47c-1,.08-1.9.13-2.87.13A32.73,32.73,0,0,1,25.8,58a31.27,31.27,0,0,1-4.46-1c-.86-.25-1.7-.53-2.52-.85a31.21,31.21,0,0,1-4.25-2A31.64,31.64,0,0,1,11.36,52,28.47,28.47,0,0,1,9,50.11c-1-.92-1.13-1.78-2-2.83s-2.57-2.39-3.31-3.61A28.57,28.57,0,0,1,1.9,40.1a27.13,27.13,0,0,1-1.35-4c-.3-1.2.77-2.71.63-4a23.1,23.1,0,0,1,0-2.76c0-1.07-.78-2,0-2.75,1.47-1.37,1.25-3.09,1.47-4.13s-.61.25,0-1.37c.42-1.13,0-4,.54-5.09a28.24,28.24,0,0,1,2.23-3.42A30.36,30.36,0,0,1,14.15,4.9,9.42,9.42,0,0,1,17,3.41c5.42-1,5.84-1.92,7.84-2.43A23.2,23.2,0,0,1,30.48.5a34,34,0,0,1,3.93.23,33.06,33.06,0,0,1,4.37.83A33.43,33.43,0,0,1,42.52,2.8a31.18,31.18,0,0,1,6.71,3.69c.91.66,2.39,2.89,3.21,3.64,1,.91.61,1.73,1.47,2.75s2.28,1.75,2.93,2.75,1,.53,1.47,1.45a27.62,27.62,0,0,1,1.57,3.82,27.23,27.23,0,0,1,.74,2.72C61,25.48,62.35,27.72,61.23,29.39Z"/><ellipse class="cls-2" cx="11.29" cy="12.32" rx="5.79" ry="4.87" transform="translate(-3.65 4.83) rotate(-20.85)"/><ellipse class="cls-2" cx="53.73" cy="40.43" rx="7.97" ry="4.88" transform="translate(-12.45 52.34) rotate(-47.16)"/><ellipse class="cls-2" cx="55.92" cy="21.25" rx="4.11" ry="6.33" transform="translate(3.4 49.89) rotate(-49.41)"/><ellipse class="cls-2" cx="17.37" cy="53.85" rx="2.59" ry="3.75" transform="translate(-38 42.21) rotate(-60.25)"/><ellipse class="cls-2" cx="28.16" cy="8.4" rx="4.35" ry="4.02" transform="translate(-0.27 15.84) rotate(-31.28)"/><ellipse class="cls-2" cx="51.14" cy="29.54" rx="2.59" ry="3.75" transform="translate(0.12 59.28) rotate(-60.25)"/><ellipse class="cls-2" cx="26.88" cy="51.46" rx="3.89" ry="3.86" transform="translate(-31.14 49.27) rotate(-60.25)"/></g></g></svg>