<svg xmlns="http://www.w3.org/2000/svg" viewBox="0 0 34.31 30.34"><defs><style>.cls-1{fill:#444343;}.cls-1,.cls-2{stroke:#000;stroke-miterlimit:10;stroke-width:0.75px;}.cls-2{fill:#353535;}</style></defs><g id="Layer_2" data-name="Layer 2"><g id="extra_assets" data-name="extra assets"><path class="cls-1" d="M16.4,29.72c-1.7-1-2.2-.26-3.22-.37a12.1,12.1,0,0,1-3-.89,19.3,19.3,0,0,1-1.84-.86,8.78,8.78,0,0,1-2.13-1.72c-.63-.61-1.58-1-2.16-1.61a14.16,14.16,0,0,1-1.48-1.91,14,14,0,0,1-1-1.9,13.32,13.32,0,0,1-.94-3.05,12.73,12.73,0,0,1-.2-1.63q0-.69,0-1.38A12.83,12.83,0,0,1,.7,12.15,13.13,13.13,0,0,1,1.36,10c.17-.41.36-.81.56-1.2a14.14,14.14,0,0,1,1.27-2,15.24,15.24,0,0,1,1.29-1.5c.37-.38.76-.74,1.17-1.09a13,13,0,0,1,1.69-.91A21.66,21.66,0,0,1,9.51,1.79,16.91,16.91,0,0,1,11.63,1,20,20,0,0,1,14,.39c.71-.12,1.56.42,2.29.38a14.15,14.15,0,0,1,1.59,0c.62,0,1.19-.34,1.6.05a4,4,0,0,0,2.36.78c.52.11-.13-.3.8,0,.64.22,2.34.06,2.93.35a16,16,0,0,1,1.93,1.14,15.05,15.05,0,0,1,1.47,1.13,16.14,16.14,0,0,1,1.74,1.77A14.81,14.81,0,0,1,31.74,7.5a4.16,4.16,0,0,1,.8,1.41,16,16,0,0,0,1.22,3.81,9.13,9.13,0,0,1,.14,2.72,13.19,13.19,0,0,1-.23,1.89,12.47,12.47,0,0,1-.59,2.09,12.91,12.91,0,0,1-.8,1.78,15.41,15.41,0,0,1-.93,1.49A14.38,14.38,0,0,1,30,24.36c-.4.43-1.73,1.1-2.18,1.48s-1,.26-1.63.66-1.07,1.06-1.67,1.36-.33.47-.88.68a18.35,18.35,0,0,1-2.25.69q-.78.18-1.59.3C18.68,29.69,17.35,30.29,16.4,29.72Z"/><ellipse class="cls-2" cx="27.51" cy="5.99" rx="2.66" ry="2.97" transform="translate(7.8 26.1) rotate(-57.87)"/><ellipse class="cls-2" cx="10.18" cy="25.91" rx="2.54" ry="4.28" transform="translate(-17.01 19.96) rotate(-56.19)"/><ellipse class="cls-2" cx="21.25" cy="27.31" rx="3.4" ry="2.14" transform="translate(-11.74 16.86) rotate(-34.53)"/><ellipse class="cls-2" cx="3.28" cy="8.17" rx="1.95" ry="1.39" transform="translate(-4.64 4.34) rotate(-42.32)"/><ellipse class="cls-2" cx="29.38" cy="14.18" rx="2.04" ry="2.39" transform="translate(9.6 40.13) rotate(-78.45)"/><ellipse class="cls-2" cx="16.57" cy="24.86" rx="1.95" ry="1.39" transform="translate(-12.42 17.63) rotate(-42.32)"/><ellipse class="cls-2" cx="4.44" cy="12.79" rx="1.87" ry="2.25" transform="translate(-8.39 17.13) rotate(-89.58)"/><ellipse class="cls-2" cx="13.4" cy="5.41" rx="1.95" ry="1.39" transform="translate(-0.15 10.43) rotate(-42.32)"/></g></g></svg>