<svg xmlns="http://www.w3.org/2000/svg" xmlns:xlink="http://www.w3.org/1999/xlink" viewBox="0 0 530.55 244.42"><defs><style>.cls-1{font-size:72px;}.cls-1,.cls-8{fill:#c60bf4;}.cls-1,.cls-2{font-family:Impact;}.cls-2{font-size:60px;fill:#e061ff;}.cls-3{fill:#09d8d8;stroke-width:5px;}.cls-15,.cls-20,.cls-21,.cls-22,.cls-23,.cls-25,.cls-27,.cls-3,.cls-4,.cls-5,.cls-6{stroke:#000;}.cls-10,.cls-11,.cls-14,.cls-15,.cls-16,.cls-17,.cls-18,.cls-19,.cls-20,.cls-21,.cls-22,.cls-23,.cls-24,.cls-25,.cls-26,.cls-27,.cls-3,.cls-4,.cls-5,.cls-6,.cls-7{stroke-miterlimit:10;}.cls-4{fill:#0e7575;}.cls-5{fill:#36333f;stroke-width:6px;}.cls-6{fill:#fff;}.cls-7{fill:#8e08a5;stroke:#e008f7;}.cls-9{fill:#6b07a5;}.cls-10,.cls-14,.cls-15,.cls-16,.cls-17,.cls-18,.cls-19,.cls-27{fill:none;}.cls-10{stroke:#cd45ff;}.cls-11{fill:#1fe8e8;stroke:#00ff9d;}.cls-12{fill:#00ff9d;}.cls-13{fill:#45ffd9;}.cls-14{stroke:#8bffe7;}.cls-16{stroke:url(#linear-gradient);}.cls-17{stroke:url(#linear-gradient-2);}.cls-18{stroke:url(#linear-gradient-3);}.cls-19{stroke:url(#linear-gradient-4);}.cls-20{fill:#f9e603;}.cls-21{fill:#570df9;}.cls-22{fill:#7a7a7a;}.cls-23{fill:#606060;}.cls-24{stroke:#fff;}.cls-26{fill:#0e7f7c;stroke:#0e7f7c;}.cls-27{stroke-width:3px;}</style><linearGradient id="linear-gradient" x1="100.96" y1="120.55" x2="116.55" y2="120.55" gradientTransform="translate(-41.47 31.23) rotate(-16.51)" gradientUnits="userSpaceOnUse"><stop offset="0.01" stop-color="#9e005d"/><stop offset="0.68" stop-color="#542448"/><stop offset="1" stop-color="#36333f"/></linearGradient><linearGradient id="linear-gradient-2" x1="363.65" y1="671.55" x2="380.13" y2="671.55" gradientTransform="translate(805.22 -237.25) rotate(90.76)" xlink:href="#linear-gradient"/><linearGradient id="linear-gradient-3" x1="356.34" y1="516.78" x2="371.92" y2="516.78" gradientTransform="translate(-119.6 739.86) rotate(-125.1)" xlink:href="#linear-gradient"/><linearGradient id="linear-gradient-4" x1="153.68" y1="130.12" x2="169.26" y2="130.12" gradientTransform="translate(-116.37 138.95) rotate(-43.33)" xlink:href="#linear-gradient"/></defs><g id="Layer_2" data-name="Layer 2"><g id="pause_menu" data-name="pause menu"><text class="cls-1" transform="translate(198.73 64.48)">Kessler </text><text class="cls-1" transform="translate(285.8 139.84)">Control</text><text class="cls-2" transform="translate(202.61 58.99)">K</text><text class="cls-2" transform="translate(289.96 134.35)">C</text><text class="cls-2" transform="translate(240.72 59.35)">e</text><text class="cls-2" transform="translate(363.72 59.35)">e</text><text class="cls-2" transform="translate(274.94 59.35)">s</text><text class="cls-2" transform="translate(309.94 59.35)">s</text><text class="cls-2" transform="translate(342.89 59.35)">l</text><text class="cls-2" transform="translate(487.89 134.35)">l</text><text class="cls-2" transform="translate(401.89 134.35)">t</text><text class="cls-2" transform="translate(450.72 135.35)">o</text><text class="cls-2" transform="translate(402.32 59.35)">r</text><text class="cls-2" transform="translate(425.32 135.35)">r</text><text class="cls-2" transform="translate(364.42 136.35)">n</text><text class="cls-2" transform="translate(327.72 135.35)">o</text><g id="logo"><ellipse class="cls-3" cx="115.07" cy="151.47" rx="114.45" ry="88" transform="translate(-38.3 38.95) rotate(-16.51)"/><path class="cls-4" d="M96.07,228.42c4-11,15.87-21.29,31.63-26,22.41-6.64,44.29.5,48.87,16,.08.25.15.51.22.77-3.14,2.14,1.07-.41-4.66,2.84a159.1,159.1,0,0,1-37.68,15.31,108.14,108.14,0,0,1-28.89,4.61c-5.66.13-6.87.52-10.26.1A22.21,22.21,0,0,1,96.07,228.42Z"/><path class="cls-5" d="M106.78,196.7,30.6,219.28l-8.2-27.67L6.8,139c11.1-31.39,41.83-59.49,83-71.71a149.19,149.19,0,0,1,19.89-4.45C143.8,57.62,176.15,65.09,198.3,82c0,.09,0,.15,0,.15l23.83,80.39Z"/><polygon class="cls-6" points="51.17 115.21 49.99 114.48 48.72 115.04 49.05 113.7 48.13 112.66 49.51 112.56 50.2 111.36 50.73 112.64 52.08 112.93 51.03 113.83 51.17 115.21"/><polyline class="cls-6" points="169.56 101.15 168.62 100.92 169.36 100.31"/><polygon class="cls-6" points="141.35 158.87 140.18 158.14 138.91 158.7 139.24 157.36 138.31 156.32 139.69 156.22 140.39 155.02 140.92 156.3 142.27 156.59 141.21 157.49 141.35 158.87"/><polygon class="cls-6" points="141.96 82.69 140.78 81.96 139.51 82.52 139.84 81.18 138.92 80.15 140.3 80.04 140.99 78.84 141.52 80.13 142.87 80.42 141.82 81.31 141.96 82.69"/><polygon class="cls-6" points="40.3 99.24 39.13 98.51 37.86 99.07 38.19 97.73 37.26 96.7 38.64 96.59 39.34 95.39 39.86 96.67 41.22 96.97 40.16 97.86 40.3 99.24"/><polygon class="cls-6" points="136.32 87.1 135.59 86.65 134.79 87 135 86.16 134.42 85.51 135.28 85.44 135.72 84.69 136.05 85.5 136.9 85.68 136.24 86.24 136.32 87.1"/><polygon class="cls-6" points="178 133.49 177.14 133.48 176.64 134.18 176.38 133.35 175.56 133.09 176.27 132.6 176.26 131.73 176.95 132.25 177.77 131.98 177.49 132.8 178 133.49"/><polygon class="cls-6" points="148.04 67.55 147.17 67.53 146.67 68.24 146.41 67.41 145.59 67.15 146.3 66.65 146.29 65.79 146.98 66.31 147.8 66.03 147.52 66.85 148.04 67.55"/><polygon class="cls-6" points="89.39 90.55 88.53 90.54 88.03 91.24 87.77 90.41 86.95 90.15 87.66 89.66 87.65 88.79 88.34 89.31 89.16 89.04 88.88 89.86 89.39 90.55"/><polygon class="cls-6" points="37.95 109.78 37.08 109.77 36.58 110.47 36.33 109.64 35.5 109.39 36.21 108.89 36.2 108.02 36.9 108.54 37.72 108.27 37.44 109.09 37.95 109.78"/><polygon class="cls-6" points="76.88 186.19 76.01 186.17 75.51 186.88 75.25 186.05 74.43 185.79 75.14 185.29 75.13 184.43 75.82 184.95 76.64 184.67 76.36 185.49 76.88 186.19"/><polygon class="cls-6" points="56.1 160 54.72 159.89 53.84 160.96 53.52 159.61 52.23 159.11 53.42 158.39 53.49 157.01 54.54 157.91 55.88 157.56 55.35 158.84 56.1 160"/><polygon class="cls-6" points="71.41 130.3 70.03 130.19 69.15 131.26 68.83 129.91 67.54 129.41 68.72 128.69 68.8 127.31 69.85 128.21 71.19 127.86 70.65 129.13 71.41 130.3"/><polygon class="cls-6" points="53.08 166.49 52.22 166.42 51.67 167.09 51.47 166.24 50.66 165.93 51.4 165.48 51.45 164.62 52.1 165.18 52.94 164.96 52.61 165.76 53.08 166.49"/><polygon class="cls-6" points="54.64 143.75 53.86 144.13 53.73 144.98 53.13 144.36 52.28 144.5 52.68 143.74 52.28 142.97 53.13 143.12 53.74 142.5 53.86 143.36 54.64 143.75"/><path class="cls-7" d="M104.91,139.81a13.59,13.59,0,0,0,6.58-.32c6.44-1.91,10.32-8,8.68-13.49s-8.19-8.49-14.63-6.58a5.89,5.89,0,0,1,1.95-.12,7,7,0,0,1,2.89.84,5,5,0,0,1,2.33,3.41c.41,3.07-3.19,5.32-3.41,5.44a9.69,9.69,0,0,1-7.07,1.08c-1.13-.34-2-.78-3-.47a3.32,3.32,0,0,0-1.91,1.59,3.87,3.87,0,0,0-.42,1.72A10.25,10.25,0,0,0,104.91,139.81Z"/><path class="cls-8" d="M114.41,121.67c-.54-.49-1.43.35-.9.83,1.9,1.72.39,4.36-1.48,5.81a20.24,20.24,0,0,1-7.77,3.35.76.76,0,0,0-.18.06,4,4,0,0,0-2.28-1.14,4.22,4.22,0,0,0-2.72.61,2,2,0,0,0-.79,2c.23,1.65,1.79,2.88,3.29,3.68a19.25,19.25,0,0,0,6.4,1.72c.79.1,1.14-1,.35-1.09-2.93-.38-6.34-1-8.14-3.19a2.24,2.24,0,0,1-.64-1.92c.2-.7,1.5-.81,2.12-.7a2.11,2.11,0,0,1,1.49.9c.52.9-1.3.74-1.3.58,0-.71-1.26-.64-1.26.07,0,1.58,3,1.5,3.74.25a1.42,1.42,0,0,0,.21-.79h0c3.16-.71,6.65-2,9-4.22C115.62,126.56,116.5,123.56,114.41,121.67Z"/><path class="cls-8" d="M116.38,127.36a2.69,2.69,0,0,0-1.7,1.31c-.43.63.65,1.12,1.08.49.11-.16.66-1,.92-.66.12.15-.15.64-.23.79a3,3,0,0,1-.48.64A11,11,0,0,1,112.9,132a15.72,15.72,0,0,1-3.48,1.19,5.26,5.26,0,0,1-3.31-.06c-.69-.33-1.33.67-.64,1,1.44.69,3.23.39,4.81,0a16.29,16.29,0,0,0,5.18-2.33c1.18-.81,2.82-2.21,2.43-3.64A1.26,1.26,0,0,0,116.38,127.36Z"/><path class="cls-8" d="M117.37,132.59c-2.45,1.62-5.29,3.47-8.38,3.08-.78-.1-1.13,1-.34,1.08,3.47.45,6.57-1.42,9.34-3.24A.56.56,0,1,0,117.37,132.59Z"/><path class="cls-9" d="M114.23,136.31a13.32,13.32,0,0,1-3.92,1.5c-.8.17-.48,1.21.31,1a14.67,14.67,0,0,0,4.24-1.63C115.55,136.82,114.94,135.91,114.23,136.31Z"/><path class="cls-9" d="M106.86,135.09a8.41,8.41,0,0,1-2.36-.65c-.7-.31-1.34.68-.64,1a9,9,0,0,0,2.66.74C107.3,136.27,107.65,135.18,106.86,135.09Z"/><path class="cls-9" d="M113.16,129.91a10.81,10.81,0,0,1-2.84,1.37.55.55,0,1,0,.31,1.05,11.89,11.89,0,0,0,3.15-1.51A.55.55,0,1,0,113.16,129.91Z"/><path class="cls-9" d="M117.62,123.2a.59.59,0,0,0-.39-.2.65.65,0,0,0-.51.12.51.51,0,0,0-.3.46,3.72,3.72,0,0,0,.06.73,3.93,3.93,0,0,1-.14,1.4c-.18.7,1,.92,1.21.21l.09-.38a7.14,7.14,0,0,1,.54,1.86c.1.69,1.31.33,1.21-.36A7.42,7.42,0,0,0,117.62,123.2Z"/><path class="cls-9" d="M118.51,128.91a4.41,4.41,0,0,1-1.69,2.14c-.6.52.28,1.24.88.73a5.45,5.45,0,0,0,2-2.66C119.88,128.42,118.67,128.2,118.51,128.91Z"/><path class="cls-9" d="M113.82,120a17.31,17.31,0,0,1-1.69-.65h0a.7.7,0,0,0-.59-.1l-.08,0a.55.55,0,0,0-.17,1,1.89,1.89,0,0,1,.85.72.65.65,0,0,0,1,0,2,2,0,0,0,.35.1C114.26,121.22,114.6,120.13,113.82,120Z"/><path class="cls-10" d="M117,125.7a5.92,5.92,0,0,0-.12-2.18,7.11,7.11,0,0,1,1.39,1.46,2.89,2.89,0,0,1,.49,1.87"/><path class="cls-10" d="M112.69,121.08a.38.38,0,0,0-.09-.25,4.26,4.26,0,0,0-1.1-1.1c.59.24,1.15.41,1.76.64a1.41,1.41,0,0,0,.58.13"/><path class="cls-10" d="M110.34,131.86a6.91,6.91,0,0,0,3.1-1.21"/><path class="cls-10" d="M117.52,131.18a4,4,0,0,0,1.42-1.88"/><path class="cls-10" d="M110.79,138.14a2.23,2.23,0,0,0,.95-.13c.82-.26,1.63-.55,2.43-.89"/><path class="cls-10" d="M104.06,134.87a6.91,6.91,0,0,0,1.09.54c.58.16,1.26.05,1.84.23"/><path class="cls-11" d="M101,129.64a3,3,0,0,0-1.72,0,3.28,3.28,0,0,0-1.9,1.59,3.68,3.68,0,0,0-.42,1.71l0,.32-.1-.31c-1.64-5.55,2.25-11.59,8.68-13.49a6.54,6.54,0,0,1,2-.13,7.28,7.28,0,0,1,2.9.85,4.89,4.89,0,0,1,2.33,3.4c.41,3.08-3.2,5.33-3.41,5.45a9.69,9.69,0,0,1-7.07,1.07C101.82,129.92,101.39,129.76,101,129.64Z"/><path class="cls-12" d="M101.67,123.82a8.6,8.6,0,0,1,3.67-2,.55.55,0,1,0-.31-1,10,10,0,0,0-4.24,2.28C100.2,123.63,101.08,124.35,101.67,123.82Z"/><path class="cls-12" d="M110.75,121.27a4.76,4.76,0,0,0-3.47-.65c-.8.09-.83,1.19,0,1.1a3.93,3.93,0,0,1,2.46.29,1.68,1.68,0,0,1,.66,1.84,4.5,4.5,0,0,1-1.44,1.94,9.28,9.28,0,0,1-2.39,1.58c-.66.3-2,.87-2.62.41s-.25-1.62-.05-2.17a2.3,2.3,0,0,1,2-1.33c.39-.07,1-.15.89.34a1,1,0,0,1-.39.47,1.76,1.76,0,0,1-.37.23h0a.7.7,0,0,0-.43,0h-.06a.63.63,0,0,0-.47.56V126a.48.48,0,0,0,.31.46c.87.34,2.06-.53,2.48-1.21a1.28,1.28,0,0,0-.89-2,4.69,4.69,0,0,0-3.08.77,3.22,3.22,0,0,0-1.3,2.43c-.13.92-.11,2,.89,2.47a4.44,4.44,0,0,0,3.35-.35,10.47,10.47,0,0,0,3.11-2A5.45,5.45,0,0,0,111.6,124,2.64,2.64,0,0,0,110.75,121.27Z"/><path class="cls-12" d="M99.51,124.9a7.93,7.93,0,0,0-1.74,3.2c-.18.71,1,.93,1.21.22a6.32,6.32,0,0,1,1.42-2.69A.58.58,0,1,0,99.51,124.9Z"/><path class="cls-13" d="M100.64,126.53a4.17,4.17,0,0,0,.31,2.37c.28.63,1.49.28,1.21-.36a3.67,3.67,0,0,1-.31-1.63.54.54,0,0,0,.06-.27l0-.18C101.84,125.74,100.75,125.83,100.64,126.53Z"/><path class="cls-13" d="M109.64,123a2.88,2.88,0,0,0-1.2-1c-.69-.33-1.33.66-.64,1a1.75,1.75,0,0,1,.75.67C108.93,124.22,110,123.6,109.64,123Z"/><path class="cls-14" d="M108.17,122.44a1.88,1.88,0,0,1,1,.86"/><path class="cls-14" d="M101.21,126.53a4.09,4.09,0,0,0,.18,1.7"/><path class="cls-15" d="M120.12,126c1.58,5.76-2.17,11.57-8,13.27-6.86,2-13.29-.43-15.14-6.05-1.93-5.83,2-12.43,9.21-14C112.7,117.89,118.64,120.66,120.12,126Z"/><path class="cls-16" d="M90.65,120.43a10,10,0,0,1,.58-1,14.72,14.72,0,0,1,2.75-3,25.17,25.17,0,0,1,9.87-5"/><path class="cls-17" d="M126.68,117.82a11.21,11.21,0,0,1,.76.85,27.65,27.65,0,0,1,2,3.51c.86,1.48,1.25,3.88,1.36,7.24.06,1.53-.76,3.64-.75,4.56"/><path class="cls-18" d="M100.13,149.42c-.26,0-.64-.12-1.11-.25a14.71,14.71,0,0,1-3.71-1.64,28,28,0,0,1-5.5-4.58,29.29,29.29,0,0,1-2.42-3.17"/><path class="cls-19" d="M86.7,129.71a9.32,9.32,0,0,1,.08-1.13,14.71,14.71,0,0,1,1.1-3.92,27.64,27.64,0,0,1,3.74-6.09,29.53,29.53,0,0,1,2.79-2.85"/><polyline class="cls-20" points="101.14 147.33 99.86 149.11 100.16 150.29"/><path class="cls-20" d="M101.51,147.06l-.34.24,0,0,.37,1,0,.08-1.32,1.87,1.2.5,0-.07,1.3-1.84,0,0,.81-.56,0,0-.34-1.08-1.18-.5Z"/><line class="cls-20" x1="101.51" y1="148.36" x2="102.7" y2="148.88"/><polyline class="cls-20" points="103.5 148.32 102.09 150.28 101.35 150.81"/><polygon class="cls-21" points="105.74 148.03 105.4 147.04 103.19 147.26 103.52 148.25 105.74 148.03"/><polyline class="cls-6" points="103.45 148.37 102.64 148.86 101.43 150.76"/><polygon class="cls-21" points="101.57 148.4 102.62 148.86 103.09 150.95 102.02 150.46 101.57 148.4"/><polygon class="cls-21" points="100.34 145.35 101.17 144.84 101.95 146.76 101.14 147.33 100.34 145.35"/><path class="cls-22" d="M103.5,148a1.15,1.15,0,0,1-1.38.17.72.72,0,0,1,0-1.15"/><ellipse class="cls-23" cx="102.84" cy="147.45" rx="0.59" ry="0.86" transform="translate(-73.97 179.97) rotate(-65.53)"/><polyline class="cls-6" points="101.12 147.37 101.49 148.34 100.18 150.23"/><polyline class="cls-20" points="125.56 118.5 127.76 118.55 128.57 117.65"/><path class="cls-20" d="M125.14,118.34l.39.15h0l.66-.89h.08l2.29.05-.25-1.28h-.08l-2.25,0h0l-.92-.35h0l-.7.89.24,1.27Z"/><line class="cls-20" x1="126.22" y1="117.61" x2="125.98" y2="116.33"/><polyline class="cls-20" points="125.06 115.98 127.47 116.06 128.34 116.37"/><polygon class="cls-21" points="123.57 114.3 122.94 115.13 124.36 116.84 124.99 116.01 123.57 114.3"/><polyline class="cls-6" points="125.13 116 125.99 116.39 128.25 116.34"/><polygon class="cls-21" points="126.21 117.54 126.01 116.41 127.47 114.86 127.67 116.01 126.21 117.54"/><polygon class="cls-21" points="124.38 120.27 123.49 119.88 124.65 118.15 125.56 118.5 124.38 120.27"/><path class="cls-22" d="M124.77,116.19a1.14,1.14,0,0,1,.91,1,.72.72,0,0,1-1,.63"/><ellipse class="cls-23" cx="124.71" cy="117.02" rx="0.59" ry="0.86" transform="translate(-17.85 22.56) rotate(-9.65)"/><polyline class="cls-6" points="125.61 118.5 126.21 117.64 128.51 117.67"/><polyline class="cls-20" points="91.53 120.62 89.35 120.32 88.44 121.13"/><path class="cls-20" d="M91.93,120.82l-.37-.19h0l-.75.81s-.07,0-.08,0l-2.27-.3.11,1.3h.08s2.23.29,2.23.28l0,0,.87.44,0,0,.8-.8-.11-1.29Z"/><line class="cls-20" x1="90.78" y1="121.43" x2="90.88" y2="122.73"/><polyline class="cls-20" points="91.75 123.17 89.36 122.84 88.54 122.43"/><polygon class="cls-21" points="93.05 125.01 93.77 124.25 92.54 122.4 91.83 123.15 93.05 125.01"/><polyline class="cls-6" points="91.69 123.15 90.87 122.67 88.62 122.47"/><polygon class="cls-21" points="90.78 121.5 90.86 122.64 89.23 124.03 89.17 122.86 90.78 121.5"/><polygon class="cls-21" points="92.9 118.99 93.74 119.48 92.4 121.07 91.53 120.62 92.9 118.99"/><path class="cls-22" d="M92.07,123a1.14,1.14,0,0,1-.79-1.14.71.71,0,0,1,1-.52"/><ellipse class="cls-23" cx="92.21" cy="122.18" rx="0.59" ry="0.86" transform="translate(-7.01 5.62) rotate(-3.36)"/><polyline class="cls-6" points="91.48 120.62 90.79 121.4 88.51 121.12"/><polyline class="cls-20" points="87.02 129.4 84.98 130.22 84.59 131.37"/><path class="cls-20" d="M87.47,129.37l-.42,0h0l-.25,1.07-.07,0-2.13.87.74,1.07.07,0s2.09-.85,2.08-.86h0l1,0h0l.3-1.1-.73-1.06Z"/><line class="cls-20" x1="86.77" y1="130.47" x2="87.49" y2="131.55"/><polyline class="cls-20" points="88.47 131.51 86.23 132.4 85.31 132.45"/><polygon class="cls-21" points="90.51 132.46 90.76 131.45 88.78 130.44 88.53 131.45 90.51 132.46"/><polyline class="cls-6" points="88.41 131.52 87.46 131.5 85.41 132.45"/><polygon class="cls-21" points="86.8 130.53 87.44 131.49 86.71 133.5 86.07 132.51 86.8 130.53"/><polygon class="cls-21" points="87.4 127.3 88.37 127.31 88 129.36 87.02 129.4 87.4 127.3"/><path class="cls-22" d="M88.66,131.2a1.15,1.15,0,0,1-1.25-.6.72.72,0,0,1,.63-1"/><ellipse class="cls-23" cx="88.38" cy="130.42" rx="0.59" ry="0.86" transform="translate(-56.8 69.23) rotate(-33.02)"/><polyline class="cls-6" points="86.97 129.42 86.77 130.44 84.64 131.33"/><path class="cls-4" d="M180,162.45v-.06a7.42,7.42,0,0,1,3.68-7.44c3.71-2.19,8.39,1.19,8.55,1.28a62.7,62.7,0,0,0,.83,8.29,38.77,38.77,0,0,0,4.54,13.11c3.75,6.28,6.94,6.08,11.32,12.89L200,200.14l0,0a30.18,30.18,0,0,0-4.9-11.39c-2.53-3.53-5.11-5.36-6.73-9.77a53.07,53.07,0,0,1-1.85-10.6C183.83,167.61,180.53,165.13,180,162.45Z"/><path class="cls-4" d="M53.3,193.3a12.72,12.72,0,0,0-2.7,4,63.4,63.4,0,0,1,3.83,7.41,38.69,38.69,0,0,1,3.33,13.46c.27,7.3-2.49,8.88-2.46,16.93h.05l12.7,3.21A30.12,30.12,0,0,1,66,226.16c.19-4.34,1.36-7.28.31-11.86a52.76,52.76,0,0,0-4.22-9.9c1.83-2.16,3.26-6.08,2.15-8.59a7.41,7.41,0,0,0-7.13-4.23A5.9,5.9,0,0,0,53.3,193.3Z"/><path class="cls-4" d="M46.23,183.44c-1.09,6.74-.71,10.51.46,11.94,1.81,2.21,6.65,3.41,8.89,2.16A35.24,35.24,0,0,1,53.42,192a36.27,36.27,0,0,1-1.1-15.39c4-3.22,5.12-7.3,4.89-8.45-.09-.44-.45-1.51-.84-3.43-.14-.71.41-1.89.28-2.17a1.93,1.93,0,0,1-.54-.35,2.18,2.18,0,0,1-.6-1.64,19.84,19.84,0,0,0-3.43,4c-2.2,4-3.27,6.7-4.81,13.56C46.84,180.06,46.49,181.83,46.23,183.44Z"/><path class="cls-4" d="M189,142.83c4.42,5.21,6,8.63,5.77,10.46-.4,2.82-3.92,6.36-6.49,6.44a34.77,34.77,0,0,0-1-5.85,36.22,36.22,0,0,0-7-13.74c-5.12-.67-8.16-3.6-8.56-4.71-.15-.42-.39-1.52-1.06-3.37-.24-.67-1.32-1.4-1.36-1.71a1.64,1.64,0,0,0,.28-.58,2.16,2.16,0,0,0-.33-1.72,20.52,20.52,0,0,1,5,1.62c3.93,2.26,6.27,4.05,11.13,9.13C186.73,140.25,187.94,141.59,189,142.83Z"/><ellipse class="cls-4" cx="120.21" cy="172.21" rx="69.66" ry="49.29" transform="translate(-43.98 41.26) rotate(-16.51)"/><circle class="cls-4" cx="153.65" cy="102.61" r="7.76"/><circle class="cls-4" cx="87.14" cy="79.28" r="9.7"/><path class="cls-4" d="M81.11,111.05a8.11,8.11,0,0,1-5.47,10.08,8.47,8.47,0,0,1-9.19-3.48,6.59,6.59,0,0,1-.9-2c-.82-3.25.61-8.64,5.48-10.08A8.12,8.12,0,0,1,81.11,111.05Z"/><path class="cls-4" d="M65.18,147.12a11.71,11.71,0,0,1-2.64-5,10.89,10.89,0,0,1,.79-6.67c.79-1.66,1.81-2.61,3.83-4.45,3.8-3.45,6.08-4.06,6.29-6.09a5.92,5.92,0,0,0-1.23-3.5l4.09-.48c1.06,1.71.48,3.86-.23,5.41-1.64,3.52-3.74,3.63-4.81,6.76a8.8,8.8,0,0,0,.09,5.86,15.26,15.26,0,0,0,2.06,3.25l-6.74,6.41A12.58,12.58,0,0,1,65.18,147.12Z"/><path class="cls-4" d="M94,129.46l-.4.15a36.75,36.75,0,0,1,2.46-8.46c4.1-9.09,10-10.94,9.58-16.08-.26-3.59-3.41-6.88-6.31-8.25-4.59-2.17-8.61.47-11.7-2.23-1.64-1.44-2.11-4.18-2.26-5.81l.34-.06L92,87.59a6.43,6.43,0,0,0,1.88,3.86c1.66,1.24,3.74.49,5.45.4,4.85-.25,10.53,4.57,12.6,10.25,2.94,8.07-2.42,15.11-2.75,15.53-1,3.05-2.78,4.69-3.78,7.74Z"/><path class="cls-4" d="M152.87,123.43l4.78,1.35c1.12-3.55.57-6.56-.19-7.48-1.32-1.58-3.63-1.18-5.2-3.25a3.86,3.86,0,0,1,0-3.85l-3.63-1.68c-.93,1.2-1.7,4-1.18,5.32,1.22,3,5.08,3.26,5.6,5.88.19,1-.88,2.51-1.39,3.35Z"/><ellipse class="cls-4" cx="60.67" cy="157.3" rx="6.73" ry="3.38" transform="translate(-95.2 93.06) rotate(-46.51)"/><ellipse class="cls-4" cx="57.05" cy="168.4" rx="5.08" ry="2.55" transform="translate(-104.39 93.89) rotate(-46.51)"/><path class="cls-4" d="M47.6,176.72a12.91,12.91,0,0,1,2.48-4.05,9.57,9.57,0,0,1,3.12-2.76,2.14,2.14,0,0,0,.33,2.15,2.11,2.11,0,0,0,2.09.24A9.2,9.2,0,0,0,52.28,177"/><ellipse class="cls-4" cx="163.13" cy="127.91" rx="3.38" ry="6.73" transform="translate(-3.49 251.24) rotate(-74.61)"/><ellipse class="cls-4" cx="171.97" cy="135.55" rx="2.55" ry="5.08" transform="translate(-4.36 265.38) rotate(-74.61)"/><path class="cls-4" d="M184.35,137.78a13.17,13.17,0,0,0-4.21-2.18,9.77,9.77,0,0,0-4.1-.76,2.16,2.16,0,0,1,.83,2,2.11,2.11,0,0,1-1.67,1.29,10.1,10.1,0,0,1,5.64,2.2"/><circle class="cls-6" cx="74.27" cy="113.72" r="5.91"/><circle class="cls-6" cx="86.3" cy="79.53" r="6"/><circle class="cls-6" cx="151.89" cy="103.5" r="4.06"/><circle class="cls-24" cx="152" cy="103.56" r="2.73"/><circle class="cls-24" cx="74.27" cy="113.72" r="2.73"/><circle class="cls-24" cx="86.74" cy="81.33" r="2.73"/><path class="cls-25" d="M167.4,182.5c-1.46,9.35-12.67,24.08-35.12,30.74s-39.37,1.55-46.21-6.63,12.67-24.08,35.13-30.74S169.06,171.86,167.4,182.5Z"/><path class="cls-6" d="M126,186.7l-3.36-11.34c2.57-.72,5.16-1.32,7.75-1.8l3.29,11.13L126,186.94Z"/><path class="cls-6" d="M123.27,187.5l-3.36-11.33c-2.55.8-5,1.72-7.47,2.73l3.29,11.1,7.61-2.26Z"/><ellipse class="cls-26" cx="74.06" cy="158.94" rx="8.55" ry="5.82" transform="translate(-90.05 97.17) rotate(-44.39)"/><ellipse class="cls-26" cx="71.24" cy="172.83" rx="4.31" ry="2.88" transform="matrix(0.71, -0.7, 0.7, 0.71, -100.57, 99.16)"/><ellipse class="cls-26" cx="169.15" cy="156.22" rx="8.55" ry="5.82" transform="translate(-22.22 284.27) rotate(-76.51)"/><ellipse class="cls-26" cx="179.29" cy="166.1" rx="5.8" ry="3.76" transform="translate(-65.02 172.82) rotate(-44.39)"/><path class="cls-27" d="M196.42,80.58c13.45,9.71,23.39,22.76,28.05,38.47C238.28,165.64,200.35,218,139.74,236S18.81,230.7,5,184.1,29.12,85.17,89.72,67.2C129.9,55.29,170,61.48,196.42,80.58"/></g></g></g></svg>