<svg xmlns="http://www.w3.org/2000/svg" xmlns:xlink="http://www.w3.org/1999/xlink" viewBox="0 0 230.14 186.24"><defs><style>.cls-1{fill:#09d8d8;stroke-width:5px;}.cls-1,.cls-13,.cls-18,.cls-19,.cls-2,.cls-20,.cls-21,.cls-23,.cls-25,.cls-3,.cls-4{stroke:#000;}.cls-1,.cls-12,.cls-13,.cls-14,.cls-15,.cls-16,.cls-17,.cls-18,.cls-19,.cls-2,.cls-20,.cls-21,.cls-22,.cls-23,.cls-24,.cls-25,.cls-3,.cls-4,.cls-5,.cls-8,.cls-9{stroke-miterlimit:10;}.cls-2{fill:#0e7575;}.cls-3{fill:#36333f;stroke-width:6px;}.cls-4{fill:#fff;}.cls-5{fill:#8e08a5;stroke:#e008f7;}.cls-6{fill:#c60bf4;}.cls-7{fill:#6b07a5;}.cls-12,.cls-13,.cls-14,.cls-15,.cls-16,.cls-17,.cls-25,.cls-8{fill:none;}.cls-8{stroke:#cd45ff;}.cls-9{fill:#1fe8e8;stroke:#00ff9d;}.cls-10{fill:#00ff9d;}.cls-11{fill:#45ffd9;}.cls-12{stroke:#8bffe7;}.cls-14{stroke:url(#linear-gradient);}.cls-15{stroke:url(#linear-gradient-2);}.cls-16{stroke:url(#linear-gradient-3);}.cls-17{stroke:url(#linear-gradient-4);}.cls-18{fill:#f9e603;}.cls-19{fill:#570df9;}.cls-20{fill:#7a7a7a;}.cls-21{fill:#606060;}.cls-22{stroke:#fff;}.cls-24{fill:#0e7f7c;stroke:#0e7f7c;}.cls-25{stroke-width:3px;}</style><linearGradient id="linear-gradient" x1="100.96" y1="62.37" x2="116.55" y2="62.37" gradientTransform="translate(-24.93 28.84) rotate(-16.51)" gradientUnits="userSpaceOnUse"><stop offset="0.01" stop-color="#9e005d"/><stop offset="0.68" stop-color="#542448"/><stop offset="1" stop-color="#36333f"/></linearGradient><linearGradient id="linear-gradient-2" x1="363.65" y1="613.37" x2="380.13" y2="613.37" gradientTransform="translate(747.04 -296.21) rotate(90.76)" xlink:href="#linear-gradient"/><linearGradient id="linear-gradient-3" x1="356.34" y1="458.6" x2="371.92" y2="458.6" gradientTransform="translate(-72 648.21) rotate(-125.1)" xlink:href="#linear-gradient"/><linearGradient id="linear-gradient-4" x1="153.68" y1="71.94" x2="169.26" y2="71.94" gradientTransform="translate(-76.44 123.08) rotate(-43.33)" xlink:href="#linear-gradient"/></defs><g id="Layer_2" data-name="Layer 2"><g id="pause_menu" data-name="pause menu"><g id="logo"><ellipse class="cls-1" cx="115.07" cy="93.29" rx="114.45" ry="88" transform="translate(-21.77 36.55) rotate(-16.51)"/><path class="cls-2" d="M96.07,170.24c4-11.05,15.87-21.3,31.63-26,22.41-6.65,44.29.5,48.87,15.95.08.26.15.51.22.77-3.14,2.14,1.07-.4-4.66,2.85a159.1,159.1,0,0,1-37.68,15.31,108.18,108.18,0,0,1-28.89,4.6c-5.66.13-6.87.52-10.26.11A22.2,22.2,0,0,1,96.07,170.24Z"/><path class="cls-3" d="M106.78,138.51,30.6,161.09l-8.2-27.67L6.8,80.78c11.1-31.38,41.83-59.49,83-71.7a149.19,149.19,0,0,1,19.89-4.45C143.8-.57,176.15,6.9,198.3,23.77c0,.08,0,.14,0,.14l23.83,80.4Z"/><polygon class="cls-4" points="51.17 57.02 49.99 56.3 48.72 56.85 49.05 55.51 48.13 54.48 49.51 54.37 50.2 53.18 50.73 54.46 52.08 54.75 51.03 55.65 51.17 57.02"/><polyline class="cls-4" points="169.56 42.96 168.62 42.74 169.36 42.13"/><polygon class="cls-4" points="141.35 100.68 140.18 99.96 138.91 100.52 139.24 99.17 138.31 98.14 139.69 98.03 140.39 96.84 140.92 98.12 142.27 98.41 141.21 99.31 141.35 100.68"/><polygon class="cls-4" points="141.96 24.5 140.78 23.78 139.51 24.34 139.84 22.99 138.92 21.96 140.3 21.86 140.99 20.66 141.52 21.94 142.87 22.23 141.82 23.13 141.96 24.5"/><polygon class="cls-4" points="40.3 41.05 39.13 40.33 37.86 40.89 38.19 39.54 37.26 38.51 38.64 38.41 39.34 37.21 39.86 38.49 41.22 38.78 40.16 39.68 40.3 41.05"/><polygon class="cls-4" points="136.32 28.91 135.59 28.46 134.79 28.81 135 27.97 134.42 27.32 135.28 27.26 135.72 26.51 136.05 27.31 136.9 27.49 136.24 28.05 136.32 28.91"/><polygon class="cls-4" points="178 75.31 177.14 75.29 176.64 76 176.38 75.17 175.56 74.91 176.27 74.41 176.26 73.55 176.95 74.07 177.77 73.79 177.49 74.61 178 75.31"/><polygon class="cls-4" points="148.04 9.36 147.17 9.35 146.67 10.05 146.41 9.22 145.59 8.96 146.3 8.47 146.29 7.6 146.98 8.12 147.8 7.85 147.52 8.67 148.04 9.36"/><polygon class="cls-4" points="89.39 32.37 88.53 32.35 88.03 33.06 87.77 32.23 86.95 31.97 87.66 31.47 87.65 30.61 88.34 31.13 89.16 30.85 88.88 31.67 89.39 32.37"/><polygon class="cls-4" points="37.95 51.6 37.08 51.58 36.58 52.29 36.33 51.46 35.5 51.2 36.21 50.7 36.2 49.84 36.9 50.36 37.72 50.08 37.44 50.9 37.95 51.6"/><polygon class="cls-4" points="76.88 128 76.01 127.99 75.51 128.69 75.25 127.86 74.43 127.6 75.14 127.11 75.13 126.24 75.82 126.76 76.64 126.49 76.36 127.31 76.88 128"/><polygon class="cls-4" points="56.1 101.81 54.72 101.7 53.84 102.77 53.52 101.43 52.23 100.93 53.42 100.21 53.49 98.82 54.54 99.73 55.88 99.37 55.35 100.65 56.1 101.81"/><polygon class="cls-4" points="71.41 72.11 70.03 72 69.15 73.07 68.83 71.73 67.54 71.23 68.72 70.51 68.8 69.13 69.85 70.03 71.19 69.67 70.65 70.95 71.41 72.11"/><polygon class="cls-4" points="53.08 108.3 52.22 108.23 51.67 108.9 51.47 108.06 50.66 107.75 51.4 107.3 51.45 106.43 52.1 107 52.94 106.77 52.61 107.57 53.08 108.3"/><polygon class="cls-4" points="54.64 85.56 53.86 85.94 53.73 86.8 53.13 86.18 52.28 86.32 52.68 85.55 52.28 84.79 53.13 84.94 53.74 84.32 53.86 85.17 54.64 85.56"/><path class="cls-5" d="M104.91,81.62a13.58,13.58,0,0,0,6.58-.31c6.44-1.91,10.32-8,8.68-13.5s-8.19-8.49-14.63-6.58a6.48,6.48,0,0,1,1.95-.12,7.12,7.12,0,0,1,2.89.85,4.89,4.89,0,0,1,2.33,3.4c.41,3.07-3.19,5.33-3.41,5.45a9.69,9.69,0,0,1-7.07,1.07c-1.13-.33-2-.77-3-.46A3.28,3.28,0,0,0,97.28,73a3.81,3.81,0,0,0-.42,1.71A10.24,10.24,0,0,0,104.91,81.62Z"/><path class="cls-6" d="M114.41,63.48c-.54-.49-1.43.35-.9.84,1.9,1.71.39,4.36-1.48,5.81a20.22,20.22,0,0,1-7.77,3.34.75.75,0,0,0-.18.07,3.89,3.89,0,0,0-2.28-1.14,4.21,4.21,0,0,0-2.72.6,2,2,0,0,0-.79,2c.23,1.66,1.79,2.88,3.29,3.68a19,19,0,0,0,6.4,1.72c.79.11,1.14-1,.35-1.08-2.93-.39-6.34-1-8.14-3.2a2.22,2.22,0,0,1-.64-1.91c.2-.71,1.5-.81,2.12-.71a2.16,2.16,0,0,1,1.49.91c.52.89-1.3.74-1.3.58,0-.71-1.26-.64-1.26.07,0,1.58,3,1.49,3.74.24a1.4,1.4,0,0,0,.21-.79h0c3.16-.72,6.65-2,9-4.22C115.62,68.37,116.5,65.38,114.41,63.48Z"/><path class="cls-6" d="M116.38,69.18a2.63,2.63,0,0,0-1.7,1.31c-.43.63.65,1.11,1.08.48.11-.16.66-1,.92-.66.12.15-.15.65-.23.8a3.24,3.24,0,0,1-.48.64,11,11,0,0,1-3.07,2,15.25,15.25,0,0,1-3.48,1.2,5.26,5.26,0,0,1-3.31-.07c-.69-.32-1.33.67-.64,1a7.28,7.28,0,0,0,4.81,0,16.29,16.29,0,0,0,5.18-2.33c1.18-.81,2.82-2.21,2.43-3.63A1.26,1.26,0,0,0,116.38,69.18Z"/><path class="cls-6" d="M117.37,74.41c-2.45,1.61-5.29,3.47-8.38,3.07-.78-.1-1.13,1-.34,1.09,3.47.44,6.57-1.42,9.34-3.25A.55.55,0,1,0,117.37,74.41Z"/><path class="cls-7" d="M114.23,78.12a13.32,13.32,0,0,1-3.92,1.5c-.8.17-.48,1.22.31,1A15,15,0,0,0,114.86,79C115.55,78.63,114.94,77.72,114.23,78.12Z"/><path class="cls-7" d="M106.86,76.9a7.79,7.79,0,0,1-2.36-.65c-.7-.31-1.34.69-.64,1a9.36,9.36,0,0,0,2.66.74C107.3,78.08,107.65,77,106.86,76.9Z"/><path class="cls-7" d="M113.16,71.73a11.13,11.13,0,0,1-2.84,1.37.55.55,0,1,0,.31,1,11.86,11.86,0,0,0,3.15-1.5A.55.55,0,1,0,113.16,71.73Z"/><path class="cls-7" d="M117.62,65a.55.55,0,0,0-.39-.2.61.61,0,0,0-.51.11.53.53,0,0,0-.3.46,3.82,3.82,0,0,0,.06.74,3.88,3.88,0,0,1-.14,1.39c-.18.7,1,.92,1.21.22l.09-.39a7.37,7.37,0,0,1,.54,1.86c.1.7,1.31.33,1.21-.36A7.35,7.35,0,0,0,117.62,65Z"/><path class="cls-7" d="M118.51,70.72a4.43,4.43,0,0,1-1.69,2.15c-.6.51.28,1.23.88.72a5.43,5.43,0,0,0,2-2.65C119.88,70.24,118.67,70,118.51,70.72Z"/><path class="cls-7" d="M113.82,61.82c-.61-.11-1.1-.5-1.69-.66h0a.7.7,0,0,0-.59-.11l-.08,0a.55.55,0,0,0-.17,1,2,2,0,0,1,.85.72.65.65,0,0,0,1,0,2,2,0,0,0,.35.09C114.26,63,114.6,62,113.82,61.82Z"/><path class="cls-8" d="M117,67.52a6,6,0,0,0-.12-2.19,7.38,7.38,0,0,1,1.39,1.46,2.92,2.92,0,0,1,.49,1.88"/><path class="cls-8" d="M112.69,62.89a.4.4,0,0,0-.09-.25,4.42,4.42,0,0,0-1.1-1.1c.59.24,1.15.42,1.76.64a1.41,1.41,0,0,0,.58.13"/><path class="cls-8" d="M110.34,73.67a6.9,6.9,0,0,0,3.1-1.2"/><path class="cls-8" d="M117.52,73a4.07,4.07,0,0,0,1.42-1.89"/><path class="cls-8" d="M110.79,80a2.09,2.09,0,0,0,.95-.13,24.44,24.44,0,0,0,2.43-.89"/><path class="cls-8" d="M104.06,76.68a5.53,5.53,0,0,0,1.09.54c.58.17,1.26,0,1.84.24"/><path class="cls-9" d="M101,71.46a3,3,0,0,0-1.72,0A3.32,3.32,0,0,0,97.35,73a3.74,3.74,0,0,0-.42,1.72L97,75l-.1-.31c-1.64-5.54,2.25-11.58,8.68-13.49a6.86,6.86,0,0,1,2-.13,7.28,7.28,0,0,1,2.9.85,5,5,0,0,1,2.33,3.41c.41,3.07-3.2,5.32-3.41,5.44a9.69,9.69,0,0,1-7.07,1.08C101.82,71.73,101.39,71.57,101,71.46Z"/><path class="cls-10" d="M101.67,65.63a8.58,8.58,0,0,1,3.67-1.95.55.55,0,1,0-.31-1,10.11,10.11,0,0,0-4.24,2.28C100.2,65.44,101.08,66.16,101.67,65.63Z"/><path class="cls-10" d="M110.75,63.09a4.71,4.71,0,0,0-3.47-.65c-.8.08-.83,1.19,0,1.1a3.86,3.86,0,0,1,2.46.29,1.66,1.66,0,0,1,.66,1.83,4.44,4.44,0,0,1-1.44,1.94,9.06,9.06,0,0,1-2.39,1.59c-.66.3-2,.86-2.62.41s-.25-1.62-.05-2.17a2.3,2.3,0,0,1,2-1.33c.39-.08,1-.16.89.34a1.09,1.09,0,0,1-.39.47,1.72,1.72,0,0,1-.37.22h0a.62.62,0,0,0-.43,0l-.06,0a.62.62,0,0,0-.47.56v.06a.51.51,0,0,0,.31.47c.87.34,2.06-.53,2.48-1.21a1.29,1.29,0,0,0-.89-2.06,4.69,4.69,0,0,0-3.08.77,3.26,3.26,0,0,0-1.3,2.44c-.13.92-.11,2,.89,2.46a4.44,4.44,0,0,0,3.35-.34,10.7,10.7,0,0,0,3.11-2,5.36,5.36,0,0,0,1.78-2.52A2.63,2.63,0,0,0,110.75,63.09Z"/><path class="cls-10" d="M99.51,66.72a7.8,7.8,0,0,0-1.74,3.2c-.18.7,1,.92,1.21.22a6.41,6.41,0,0,1,1.42-2.7A.57.57,0,1,0,99.51,66.72Z"/><path class="cls-11" d="M100.64,68.35a4.15,4.15,0,0,0,.31,2.36c.28.64,1.49.28,1.21-.36a3.66,3.66,0,0,1-.31-1.62.6.6,0,0,0,.06-.27l0-.18C101.84,67.56,100.75,67.64,100.64,68.35Z"/><path class="cls-11" d="M109.64,64.81a2.83,2.83,0,0,0-1.2-1c-.69-.33-1.33.67-.64,1a1.81,1.81,0,0,1,.75.67C108.93,66,110,65.41,109.64,64.81Z"/><path class="cls-12" d="M108.17,64.25a1.94,1.94,0,0,1,1,.87"/><path class="cls-12" d="M101.21,68.34a4.06,4.06,0,0,0,.18,1.7"/><path class="cls-13" d="M120.12,67.86c1.58,5.75-2.17,11.57-8,13.26-6.86,2-13.29-.43-15.14-6.05-1.93-5.83,2-12.42,9.21-14C112.7,59.71,118.64,62.47,120.12,67.86Z"/><path class="cls-14" d="M90.65,62.25a8.91,8.91,0,0,1,.58-1,14.66,14.66,0,0,1,2.75-3,27.39,27.39,0,0,1,6.09-3.75,29.34,29.34,0,0,1,3.78-1.29"/><path class="cls-15" d="M126.68,59.64a9.14,9.14,0,0,1,.76.84,27.07,27.07,0,0,1,2,3.52c.86,1.47,1.25,3.87,1.36,7.24.06,1.52-.76,3.64-.75,4.55"/><path class="cls-16" d="M100.13,91.23A9.66,9.66,0,0,1,99,91a14.38,14.38,0,0,1-3.71-1.65,27.6,27.6,0,0,1-5.5-4.58,29.29,29.29,0,0,1-2.42-3.17"/><path class="cls-17" d="M86.7,71.53a9.46,9.46,0,0,1,.08-1.14,14.54,14.54,0,0,1,1.1-3.91,27.65,27.65,0,0,1,3.74-6.1,29.53,29.53,0,0,1,2.79-2.85"/><polyline class="cls-18" points="101.14 89.14 99.86 90.93 100.16 92.11"/><path class="cls-18" d="M101.51,88.87l-.34.24,0,0,.37,1a.43.43,0,0,0,0,.07l-1.32,1.87,1.2.51,0-.07,1.3-1.84,0,0,.81-.56,0,0L103.19,89,102,88.53Z"/><line class="cls-18" x1="101.51" y1="90.18" x2="102.7" y2="90.7"/><polyline class="cls-18" points="103.5 90.14 102.09 92.09 101.35 92.63"/><polygon class="cls-19" points="105.74 89.84 105.4 88.86 103.19 89.08 103.52 90.06 105.74 89.84"/><polyline class="cls-4" points="103.45 90.18 102.64 90.68 101.43 92.58"/><polygon class="cls-19" points="101.57 90.21 102.62 90.68 103.09 92.76 102.02 92.28 101.57 90.21"/><polygon class="cls-19" points="100.34 87.17 101.17 86.65 101.95 88.58 101.14 89.14 100.34 87.17"/><path class="cls-20" d="M103.5,89.78a1.14,1.14,0,0,1-1.38.16.71.71,0,0,1,0-1.14"/><ellipse class="cls-21" cx="102.84" cy="89.27" rx="0.59" ry="0.86" transform="translate(-21.01 145.89) rotate(-65.53)"/><polyline class="cls-4" points="101.12 89.18 101.49 90.16 100.18 92.04"/><polyline class="cls-18" points="125.56 60.31 127.76 60.37 128.57 59.46"/><path class="cls-18" d="M125.14,60.16l.39.15h0l.66-.88.08,0,2.29.05-.25-1.27h-.08l-2.25,0h0l-.92-.35h0l-.7.88.24,1.27Z"/><line class="cls-18" x1="126.22" y1="59.43" x2="125.98" y2="58.15"/><polyline class="cls-18" points="125.06 57.8 127.47 57.87 128.34 58.19"/><polygon class="cls-19" points="123.57 56.11 122.94 56.95 124.36 58.66 124.99 57.83 123.57 56.11"/><polyline class="cls-4" points="125.13 57.82 125.99 58.21 128.25 58.15"/><polygon class="cls-19" points="126.21 59.36 126.01 58.23 127.47 56.67 127.67 57.83 126.21 59.36"/><polygon class="cls-19" points="124.38 62.08 123.49 61.69 124.65 59.96 125.56 60.31 124.38 62.08"/><path class="cls-20" d="M124.77,58a1.16,1.16,0,0,1,.91,1,.72.72,0,0,1-1,.63"/><ellipse class="cls-21" cx="124.71" cy="58.83" rx="0.59" ry="0.86" transform="translate(-8.1 21.74) rotate(-9.65)"/><polyline class="cls-4" points="125.61 60.31 126.21 59.45 128.51 59.48"/><polyline class="cls-18" points="91.53 62.44 89.35 62.14 88.44 62.95"/><path class="cls-18" d="M91.93,62.63l-.37-.19h0l-.75.81H90.7L88.43,63l.11,1.3h.08l2.23.29h0l.87.45h0l.8-.8-.11-1.29Z"/><line class="cls-18" x1="90.78" y1="63.25" x2="90.88" y2="64.54"/><polyline class="cls-18" points="91.75 64.99 89.36 64.65 88.54 64.25"/><polygon class="cls-19" points="93.05 66.83 93.77 66.07 92.54 64.21 91.83 64.97 93.05 66.83"/><polyline class="cls-4" points="91.69 64.96 90.87 64.48 88.62 64.29"/><polygon class="cls-19" points="90.78 63.31 90.86 64.46 89.23 65.85 89.17 64.67 90.78 63.31"/><polygon class="cls-19" points="92.9 60.8 93.74 61.29 92.4 62.88 91.53 62.44 92.9 60.8"/><path class="cls-20" d="M92.07,64.82a1.15,1.15,0,0,1-.79-1.14.71.71,0,0,1,1-.53"/><ellipse class="cls-21" cx="92.21" cy="64" rx="0.59" ry="0.86" transform="translate(-3.6 5.52) rotate(-3.36)"/><polyline class="cls-4" points="91.48 62.43 90.79 63.22 88.51 62.94"/><polyline class="cls-18" points="87.02 71.22 84.98 72.03 84.59 73.19"/><path class="cls-18" d="M87.47,71.19h-.42l0,0-.25,1.07s-.07,0-.07,0l-2.13.86.74,1.08.07,0,2.08-.85h0l1-.05h0l.3-1.09-.73-1.07Z"/><line class="cls-18" x1="86.77" y1="72.29" x2="87.49" y2="73.37"/><polyline class="cls-18" points="88.47 73.32 86.23 74.21 85.31 74.27"/><polygon class="cls-19" points="90.51 74.28 90.76 73.26 88.78 72.26 88.53 73.27 90.51 74.28"/><polyline class="cls-4" points="88.41 73.33 87.46 73.32 85.41 74.26"/><polygon class="cls-19" points="86.8 72.35 87.44 73.3 86.71 75.31 86.07 74.33 86.8 72.35"/><polygon class="cls-19" points="87.4 69.12 88.37 69.13 88 71.17 87.02 71.22 87.4 69.12"/><path class="cls-20" d="M88.66,73a1.17,1.17,0,0,1-1.25-.61.71.71,0,0,1,.63-1"/><ellipse class="cls-21" cx="88.38" cy="72.23" rx="0.59" ry="0.86" transform="translate(-25.09 59.83) rotate(-33.02)"/><polyline class="cls-4" points="86.97 71.23 86.77 72.26 84.64 73.14"/><path class="cls-2" d="M180,104.27v-.07a7.4,7.4,0,0,1,3.68-7.43c3.71-2.19,8.39,1.18,8.55,1.27a62.67,62.67,0,0,0,.83,8.3,38.66,38.66,0,0,0,4.54,13.1c3.75,6.28,6.94,6.09,11.32,12.89L200,142l0,.05a30.31,30.31,0,0,0-4.9-11.4c-2.53-3.52-5.11-5.36-6.73-9.76a53.15,53.15,0,0,1-1.85-10.61C183.83,109.42,180.53,107,180,104.27Z"/><path class="cls-2" d="M53.3,135.12a12.6,12.6,0,0,0-2.7,4,62.6,62.6,0,0,1,3.83,7.41A38.62,38.62,0,0,1,57.76,160c.27,7.29-2.49,8.88-2.46,16.92h.05l12.7,3.22A30.19,30.19,0,0,1,66,168c.19-4.33,1.36-7.27.31-11.85a52.47,52.47,0,0,0-4.22-9.9c1.83-2.17,3.26-6.09,2.15-8.59a7.4,7.4,0,0,0-7.13-4.23A5.85,5.85,0,0,0,53.3,135.12Z"/><path class="cls-2" d="M46.23,125.26c-1.09,6.74-.71,10.5.46,11.93,1.81,2.21,6.65,3.42,8.89,2.16a35.24,35.24,0,0,1-2.16-5.53,36.23,36.23,0,0,1-1.1-15.38c4-3.22,5.12-7.3,4.89-8.46-.09-.43-.45-1.5-.84-3.43-.14-.7.41-1.88.28-2.17a1.73,1.73,0,0,1-.54-.35,2.18,2.18,0,0,1-.6-1.64,19.84,19.84,0,0,0-3.43,4c-2.2,4-3.27,6.71-4.81,13.57Q46.63,122.85,46.23,125.26Z"/><path class="cls-2" d="M189,84.65c4.42,5.21,6,8.63,5.77,10.46-.4,2.82-3.92,6.35-6.49,6.43a34.77,34.77,0,0,0-1-5.85,36.29,36.29,0,0,0-7-13.74c-5.12-.67-8.16-3.59-8.56-4.71-.15-.41-.39-1.51-1.06-3.37-.24-.67-1.32-1.39-1.36-1.71a1.6,1.6,0,0,0,.28-.57,2.15,2.15,0,0,0-.33-1.72,20.09,20.09,0,0,1,5,1.62c3.93,2.25,6.27,4.05,11.13,9.12C186.73,82.06,187.94,83.41,189,84.65Z"/><ellipse class="cls-2" cx="120.21" cy="114.02" rx="69.66" ry="49.29" transform="translate(-27.45 38.86) rotate(-16.51)"/><circle class="cls-2" cx="153.65" cy="44.42" r="7.76"/><circle class="cls-2" cx="87.14" cy="21.1" r="9.7"/><path class="cls-2" d="M81.11,52.87A8.12,8.12,0,0,1,75.64,63a8.49,8.49,0,0,1-9.19-3.48,6.7,6.7,0,0,1-.9-2c-.82-3.25.61-8.64,5.48-10.09A8.11,8.11,0,0,1,81.11,52.87Z"/><path class="cls-2" d="M65.18,88.93a11.67,11.67,0,0,1-2.64-5,10.89,10.89,0,0,1,.79-6.67c.79-1.67,1.81-2.62,3.83-4.45,3.8-3.45,6.08-4.06,6.29-6.09a5.94,5.94,0,0,0-1.23-3.51l4.09-.47c1.06,1.71.48,3.86-.23,5.4-1.64,3.52-3.74,3.64-4.81,6.76a8.8,8.8,0,0,0,.09,5.86A15,15,0,0,0,73.42,84l-6.74,6.42A13.8,13.8,0,0,1,65.18,88.93Z"/><path class="cls-2" d="M94,71.27l-.4.15A36.56,36.56,0,0,1,96.06,63c4.1-9.09,10-10.95,9.58-16.09-.26-3.59-3.41-6.88-6.31-8.24-4.59-2.17-8.61.46-11.7-2.24C86,35,85.52,32.22,85.37,30.59l.34-.06L92,29.41a6.38,6.38,0,0,0,1.88,3.85c1.66,1.24,3.74.5,5.45.41,4.85-.26,10.53,4.56,12.6,10.24,2.94,8.08-2.42,15.12-2.75,15.53-1,3.06-2.78,4.69-3.78,7.74Z"/><path class="cls-2" d="M152.87,65.24l4.78,1.36c1.12-3.55.57-6.57-.19-7.49-1.32-1.58-3.63-1.18-5.2-3.24a3.86,3.86,0,0,1,0-3.85l-3.63-1.69c-.93,1.2-1.7,4.05-1.18,5.32,1.22,3,5.08,3.27,5.6,5.88.19,1-.88,2.51-1.39,3.36Z"/><ellipse class="cls-2" cx="60.67" cy="99.11" rx="6.73" ry="3.38" transform="translate(-52.99 74.92) rotate(-46.51)"/><ellipse class="cls-2" cx="57.05" cy="110.22" rx="5.08" ry="2.55" transform="translate(-62.18 75.75) rotate(-46.51)"/><path class="cls-2" d="M47.6,118.53a12.78,12.78,0,0,1,2.48-4,9.52,9.52,0,0,1,3.12-2.77,2.14,2.14,0,0,0,.33,2.15,2.11,2.11,0,0,0,2.09.24,9.24,9.24,0,0,0-3.34,4.69"/><ellipse class="cls-2" cx="163.13" cy="69.73" rx="3.38" ry="6.73" transform="translate(52.61 208.5) rotate(-74.61)"/><ellipse class="cls-2" cx="171.97" cy="77.37" rx="2.55" ry="5.08" transform="translate(51.74 222.63) rotate(-74.61)"/><path class="cls-2" d="M184.35,79.6a13,13,0,0,0-4.21-2.18,9.77,9.77,0,0,0-4.1-.76,2.15,2.15,0,0,1,.83,2A2.1,2.1,0,0,1,175.2,80a10.1,10.1,0,0,1,5.64,2.2"/><circle class="cls-4" cx="74.27" cy="55.54" r="5.91"/><circle class="cls-4" cx="86.3" cy="21.35" r="6"/><circle class="cls-4" cx="151.89" cy="45.31" r="4.06"/><circle class="cls-22" cx="152" cy="45.37" r="2.73"/><circle class="cls-22" cx="74.27" cy="55.54" r="2.73"/><circle class="cls-22" cx="86.74" cy="23.15" r="2.73"/><path class="cls-23" d="M167.4,124.31c-1.46,9.36-12.67,24.08-35.12,30.74s-39.37,1.55-46.21-6.63,12.67-24.08,35.13-30.74S169.06,113.68,167.4,124.31Z"/><path class="cls-4" d="M126,128.52l-3.36-11.34c2.57-.72,5.16-1.32,7.75-1.8l3.29,11.12L126,128.76Z"/><path class="cls-4" d="M123.27,129.31,119.91,118c-2.55.81-5,1.73-7.47,2.73l3.29,11.1,7.61-2.25Z"/><ellipse class="cls-24" cx="74.06" cy="100.76" rx="8.55" ry="5.82" transform="translate(-49.34 80.56) rotate(-44.39)"/><ellipse class="cls-24" cx="71.24" cy="114.65" rx="4.31" ry="2.88" transform="matrix(0.71, -0.7, 0.7, 0.71, -59.87, 82.55)"/><ellipse class="cls-24" cx="169.15" cy="98.04" rx="8.55" ry="5.82" transform="translate(34.36 239.65) rotate(-76.51)"/><ellipse class="cls-24" cx="179.29" cy="107.91" rx="5.8" ry="3.76" transform="translate(-24.32 156.22) rotate(-44.39)"/><path class="cls-25" d="M196.42,22.4c13.45,9.71,23.39,22.76,28.05,38.46,13.81,46.6-24.12,98.94-84.73,116.9S18.81,172.51,5,125.92,29.12,27,89.72,9C129.9-2.89,170,3.3,196.42,22.4"/></g></g></g></svg>