<svg xmlns="http://www.w3.org/2000/svg" viewBox="0 0 67.36 127.45"><defs><style>.cls-1{fill:#bcbcbc;}.cls-1,.cls-2,.cls-3,.cls-4,.cls-5,.cls-6,.cls-7{stroke:#000;stroke-miterlimit:10;}.cls-2{fill:#898989;}.cls-3{fill:#aaaaa7;}.cls-4{fill:none;}.cls-5{fill:#6d6d6d;}.cls-6{fill:#c90514;}.cls-7{fill:#d8af03;}</style></defs><g id="Layer_2" data-name="Layer 2"><g id="racket"><path class="cls-1" d="M20.37,24l8-19.93a6,6,0,0,1,11.17.66L46.37,24"/><path class="cls-2" d="M33.87,79H2.7a2.19,2.19,0,0,1-1.65-3.64L30.37,42"/><path class="cls-2" d="M25.87,79H64.41a2.45,2.45,0,0,0,1.83-4.07L39.37,44"/><path class="cls-3" d="M46.37,81V53l-3-8V34l3-8c0-5-6.1-9.5-13-9.5s-13,3.53-13,8.5l3,11v8l-3,11,1,26"/><path class="cls-2" d="M25.37,96l-4-15c0-5,5.59-9,12.5-9s12.5,4,12.5,9l-4,15"/><line class="cls-4" x1="33.37" y1="16.01" x2="33.37" y2="47.51"/><ellipse class="cls-5" cx="34.03" cy="96.01" rx="8.33" ry="6"/><path class="cls-4" d="M20.37,55c1-4,5.82-8,13-8s13,3.3,13,8"/><path class="cls-6" d="M37.94,120.55A5.54,5.54,0,0,0,36.13,122a13.14,13.14,0,0,0-2.2,5.39,12.85,12.85,0,0,0-2.16-5.31c-.45-.51-1.62-1.82-2.79-1.59-1.56.3-1.87,3.08-2.4,3s-1.13-3.23.2-6c.85-1.76,1.76-1.86,2.6-3.79.66-1.55,1.14-3.95.39-4.39-1-.6-4.65,2.36-6.18,6.19-.73,1.83-.72,3.2-1,3.19s-1.28-3.52-.2-7c.7-2.24,1.49-2.19,3.39-5.79,1.54-2.9,2.48-4.73,2.2-7a8,8,0,0,0-2.27-4.47h16.4a8,8,0,0,0-2.19,4.39c-.28,2.25.66,4.08,2.19,7,1.91,3.6,2.7,3.55,3.4,5.79,1.07,3.46.23,7-.2,7s-.27-1.36-1-3.19c-1.53-3.83-5.16-6.79-6.19-6.19-.74.44-.27,2.84.4,4.39.83,1.93,1.74,2,2.6,3.79,1.33,2.76.74,5.89.2,6s-.84-2.69-2.4-3A1.58,1.58,0,0,0,37.94,120.55Z"/><path class="cls-7" d="M36.36,117.48a2.41,2.41,0,0,0-1,.34,3.93,3.93,0,0,0-1.4,3.06,4,4,0,0,0-1.41-3.08c-1.15-.73-2.56,0-2.79-.59-.35-.86,1.72-1.83,2.79-4.19,1.26-2.77.73-6.52-.79-7.19s-3.81,1.65-4,1.4,1.29-1.1,2.4-2.79a8,8,0,0,0,1.4-5.59,9.6,9.6,0,0,0-2.18-4.37h9.17a9.68,9.68,0,0,0-2.19,4.39,8,8,0,0,0,1.39,5.59c1.11,1.69,2.53,2.61,2.4,2.79s-2.51-2-4-1.4-2.05,4.42-.8,7.18c1.07,2.37,3.15,3.34,2.79,4.2C38,117.63,37.2,117.39,36.36,117.48Z"/></g></g></svg>