<svg xmlns="http://www.w3.org/2000/svg" viewBox="0 0 67.36 146.39"><defs><style>.cls-1{fill:#bcbcbc;}.cls-1,.cls-2,.cls-3,.cls-4,.cls-5,.cls-6,.cls-7,.cls-8{stroke:#000;stroke-miterlimit:10;}.cls-2{fill:#898989;}.cls-3{fill:#aaaaa7;}.cls-4{fill:none;}.cls-5{fill:#6d6d6d;}.cls-6{fill:#c90514;}.cls-7{fill:#d8af03;}.cls-8{fill:#fff800;}</style></defs><g id="Layer_2" data-name="Layer 2"><g id="racket"><path class="cls-1" d="M20.37,24l8-19.93a6,6,0,0,1,11.17.66L46.37,24"/><path class="cls-2" d="M33.87,79H2.7a2.19,2.19,0,0,1-1.65-3.64L30.37,42"/><path class="cls-2" d="M25.87,79H64.41a2.45,2.45,0,0,0,1.83-4.07L39.37,44"/><path class="cls-3" d="M46.37,81V53l-3-8V34l3-8c0-5-6.1-9.5-13-9.5s-13,3.53-13,8.5l3,11v8l-3,11,1,26"/><path class="cls-2" d="M25.37,96l-4-15c0-5,5.59-9,12.5-9s12.5,4,12.5,9l-4,15"/><line class="cls-4" x1="33.37" y1="16.01" x2="33.37" y2="47.51"/><ellipse class="cls-5" cx="34.03" cy="96.01" rx="8.33" ry="6"/><path class="cls-4" d="M20.37,55c1-4,5.82-8,13-8s13,3.3,13,8"/><path class="cls-6" d="M33.57,95.11l8.11.1c1,1.21,6.25,3.6,6.68,4.05,6,6.24,3.56,16.27,2.83,19-1.28,4.83-3.56,8.67-4,8.5s1.34-3.93.81-8.7c-.76-6.93-5.75-12.41-7.49-12-.66.18,0,2,1.22,9.52.86,5.48,1.68,12,1.21,12.14s-2-6.4-2.63-6.27c-.33.06-.16,1.78-.2,4.65-.06,4.56-.6,8.91-1,8.91s-.59-4.84-1.22-4.86c-.41,0-.32,2-1.62,5.07a36.2,36.2,0,0,0-2,4.45,15.39,15.39,0,0,0-.59,2.69,16.29,16.29,0,0,0-.61-2.83,36.9,36.9,0,0,0-2-4.45c-1.3-3-1.21-5.07-1.62-5.06-.63,0-.78,4.86-1.22,4.86s-.95-4.36-1-8.91c0-2.88.13-4.59-.2-4.66-.66-.12-2.16,6.38-2.63,6.28s.35-6.66,1.21-12.15c1.17-7.46,1.87-9.34,1.22-9.51C25,105.54,20,111,19.23,118c-.53,4.78,1.28,8.54.81,8.71s-2.77-3.68-4-8.51c-.73-2.76-3.2-12.78,2.83-19,.44-.45,5.86-2.92,6.73-4.11Z"/><path class="cls-7" d="M33.49,95H30.34c.22-.3-.86.6-1,.7a7.89,7.89,0,0,0-2.83,3.23c-1.54,2.23-3.53.82-5.87,3.24a9.53,9.53,0,0,0-2.23,4.46c-.34,1.29-.68,3.46-.2,3.64s1.11-2.15,3-4.25,5.53-4.42,7.29-3.44c3.07,1.71-.39,13,.81,13.36.62.16,1.75-2.79,2.23-2.63.9.3-2.15,11.14-.61,11.74.42.16.84-.55,1.42-.4,1,.25,1.25,2.74,1.22,5.74,0-3,.23-5.58,1.22-5.83.58-.15,1,.56,1.42.4,1.55-.6-1.51-11.44-.61-11.74.48-.16,1.61,2.79,2.23,2.63,1.21-.31-2.26-11.65.81-13.36,1.76-1,5.37,1.36,7.29,3.44s2.58,4.42,3,4.25.13-2.35-.21-3.64a9.46,9.46,0,0,0-2.22-4.46c-2.35-2.42-4.34-1-5.87-3.24a8.08,8.08,0,0,0-2.84-3.24c-.17-.09-.92-.56-1-.6Z"/><path class="cls-8" d="M33.6,106v0c.17-2.28.35-5.27,1.6-5.92s3.34,1,3.64.61c.47-.6-1-3.46-3.44-4.26a4.61,4.61,0,0,0-1.8-.2,4.63,4.63,0,0,0-1.8.2c-2.49.8-3.91,3.66-3.44,4.26.3.39,2.27-1.26,3.64-.61S33.51,103.65,33.6,106Z"/></g></g></svg>