<svg xmlns="http://www.w3.org/2000/svg" viewBox="0 0 14.99 16.87"><defs><style>.cls-1{fill:#7a7a7a;}.cls-1,.cls-2{stroke:#000;stroke-miterlimit:10;}.cls-2{fill:#606060;}</style></defs><g id="Layer_2" data-name="Layer 2"><g id="debry"><path class="cls-1" d="M8.62.67c1.61.9,3.46,2,3.88,3.73.28,1.17.34,2.46,1.36,3.29s.48,3-.13,4.26c-.87,1.81-3,2.06-5.19,4.06-1.06,1-3-.25-4.54-1.11"/><path class="cls-2" d="M8.38.54c.91-.3,1.51,1.22,2,2.15,1.1,2,2.21,5.41.47,7.65-2.25,2.88-4.93,5.89-7.1,4.43C2.51,13.93,2.1,12,.89,10,.06,8.65.73,6.66,1.28,5a10.15,10.15,0,0,1,.89-2,7.33,7.33,0,0,1,1.3-1.62A1.51,1.51,0,0,1,5,1,5.22,5.22,0,0,0,8.38.54Z"/></g></g></svg>