<svg xmlns="http://www.w3.org/2000/svg" viewBox="0 0 30.2 18.88"><defs><style>.cls-1{fill:#570df9;}.cls-1,.cls-2{stroke:#000;stroke-miterlimit:10;}.cls-2{fill:none;}</style></defs><g id="Layer_2" data-name="Layer 2"><g id="debry"><polygon class="cls-1" points="26.16 17.59 24.47 17.08 21.16 18.34 16.33 16.4 12.4 15.65 7.98 15.82 2.39 14.75 3.57 8.61 4.13 5.71 5.63 3.15 8.47 4.08 14.47 5.08 18.39 5.08 24.3 6.73 27.47 8.08 29.47 11.08 27.47 12.08 28.77 14.2 26.16 17.59"/><path class="cls-1" d="M5.14,2.36l1.19-.95L2.2,14.86l-.79-3.78L.5,8.31h0a2.93,2.93,0,0,1,1-2.25c.19-.16.39-.34.63-.53C4,4,4.31,3,5.14,2.36Z"/><polyline class="cls-2" points="20.64 15.19 22 13.41 21.39 11.26 21.95 8.31 24.3 6.73"/><line class="cls-2" x1="21.95" y1="8.31" x2="21.35" y2="6.16"/><polyline class="cls-2" points="8.29 15.88 8.85 12.93 10.21 11.15"/></g></g></svg>