<svg xmlns="http://www.w3.org/2000/svg" viewBox="0 0 19.95 9.2"><defs><style>.cls-1{fill:#570df9;stroke:#000;stroke-miterlimit:10;}</style></defs><g id="Layer_2" data-name="Layer 2"><g id="debry"><polygon class="cls-1" points="19.26 8.51 15.26 7.51 13.02 8.51 9.26 8.51 7.38 8.51 3.46 8.1 0.61 6.81 0.51 4.23 1.26 3.51 1.51 1.23 3.51 1.23 6.98 0.51 9.51 1.23 13.93 1.4 14.26 1.51 16.26 1.51 18.26 3.51 18.26 4.51 19.26 8.51"/><polyline class="cls-1" points="7.23 4.46 2.98 4.75 1.26 3.51"/><path class="cls-1" d="M8.51,6.23c-.07,0,2.41-2.14,3-2a21.93,21.93,0,0,1,2.69.21l3-2"/></g></g></svg>