<svg xmlns="http://www.w3.org/2000/svg" viewBox="0 0 19.95 8.47"><defs><style>.cls-1{fill:#570df9;stroke:#000;stroke-miterlimit:10;}</style></defs><g id="Layer_2" data-name="Layer 2"><g id="debry"><polygon class="cls-1" points="19.26 7.79 15.26 6.79 13.02 7.79 9.26 7.79 7.38 7.79 3.46 7.37 0.61 6.08 0.51 3.5 1.26 2.79 1.51 0.5 3.51 0.5 6.77 2 9.77 2 13.93 0.68 14.26 0.79 16.26 0.79 18.26 2.79 18.26 3.79 19.26 7.79"/><polyline class="cls-1" points="2.77 4.5 2.77 3 1.26 2.79"/><path class="cls-1" d="M11.77,6c-.07,0-.85-2.64-.26-2.5A6.39,6.39,0,0,0,11.77,2h-.5"/></g></g></svg>