<svg xmlns="http://www.w3.org/2000/svg" viewBox="0 0 217.54 187.5"><defs><style>.cls-1{fill:#8e08a5;stroke:#e008f7;}.cls-1,.cls-4,.cls-5,.cls-8,.cls-9{stroke-miterlimit:10;}.cls-2{fill:#c60bf4;}.cls-3{fill:#6b07a5;}.cls-4,.cls-8,.cls-9{fill:none;}.cls-4{stroke:#cd45ff;}.cls-5{fill:#1fe8e8;stroke:#00ff9d;}.cls-6{fill:#00ff9d;}.cls-7{fill:#45ffd9;}.cls-8{stroke:#8bffe7;}.cls-9{stroke:#000;}</style></defs><g id="Layer_2" data-name="Layer 2"><g id="planet"><path class="cls-1" d="M51.79,173a120.92,120.92,0,0,0,57,14C168.58,187,217,145.25,217,93.75S168.58.5,108.79.5c3.3-.1,11.89,1.72,16.92,3.89,4.51,1.94,11.23,4,22.55,14.57,3,2.75,14.08,16.94,11.27,35-4.24,27.28-40.72,37.37-42.85,37.88C98.42,96.19,72,95.1,53.54,83.07,44.78,77.35,38.78,71.5,28.73,71.41,17,71.31,9,79.57,8.43,80.15,3.81,85,1.13,91,.54,93.75.54,127.24,21,156.6,51.79,173Z"/><path class="cls-2" d="M178.81,42.15c-3.38-5.54-13.11-.63-9.74,4.9,11.84,19.44-7.79,38.21-27.39,45.82-22.85,8.88-50.12,10.56-74.79,8.94a7.19,7.19,0,0,0-1.71.09C62,95.19,54.87,89,48.62,86.4c-7.44-3.12-16.84-4.18-24.75-1.73C16.32,87,13,93.38,12,99.82,9.77,114.53,20,129,30.8,139.58c13.77,13.46,32,22.75,50.3,30.91,6.43,2.88,12.14-5.5,5.69-8.38-24-10.73-51.55-24.71-61.39-47.89-2.29-5.39-4.12-12.64-.67-18s14.87-3.1,19.92-.65c4.86,2.35,9.28,6.72,10.44,11.51,2.16,8.94-13,3-12.61,1.65,1.73-6.07-9.14-8.66-10.87-2.58C27.75,119.7,53.37,126.5,62.9,117.69a12,12,0,0,0,3.75-6.2l.24,0c28.75,1.89,62-.64,87.41-13.32C176.75,87,191.9,63.65,178.81,42.15Z"/><path class="cls-2" d="M181.24,95.8c-7.16-.94-12.9,2.92-17.82,6.9-5.31,4.28,2.68,11.14,8,6.87,1.35-1.09,8.15-6.69,9.52-3.31.63,1.57-2.9,5.11-4,6.18a27.53,27.53,0,0,1-5.75,4.27c-9.16,5.23-20.71,8-31.39,9.76a137.26,137.26,0,0,1-32.72,1.41c-10.06-.75-20.88-2.4-28.15-8.92-5-4.52-13,2.36-8,6.87,10.56,9.47,26.6,11.48,41.16,12a146.14,146.14,0,0,0,50.12-6.77c12.14-3.94,29.66-11.75,30-24.91C192.35,100.66,187.33,96.6,181.24,95.8Z"/><path class="cls-2" d="M176.47,143c-25,7.56-53.94,16.25-79.35,5.05-6.45-2.84-12.16,5.54-5.7,8.39,28.52,12.56,59.72,4.49,88-4.07C186.27,150.29,183.34,140.91,176.47,143Z"/><path class="cls-3" d="M140.26,166.77a119.62,119.62,0,0,1-37.33,2.84c-7.22-.56-7.18,9.15,0,9.71a130,130,0,0,0,40.33-3.19C150.25,174.46,147.28,165.09,140.26,166.77Z"/><path class="cls-3" d="M80.41,137.67a73.27,73.27,0,0,1-18.57-11.52c-5.14-4.42-13.12,2.44-8,6.86a82.6,82.6,0,0,0,20.85,13C81.17,148.87,86.89,140.5,80.41,137.67Z"/><path class="cls-3" d="M147.27,109.41a95.34,95.34,0,0,1-27.66,4.52c-7.25.12-7.27,9.83,0,9.72a106.81,106.81,0,0,0,30.66-4.87C157,116.64,154.11,107.25,147.27,109.41Z"/><path class="cls-3" d="M202.38,63.42a5.3,5.3,0,0,0-2.85-2.71,5.65,5.65,0,0,0-4.68-.31c-1.83.46-3.34,1.57-3.68,3.16-.92,1.91-.83,4.21-1.32,6.44a37.69,37.69,0,0,1-4.72,11.55c-3.38,5.53,6.35,10.45,9.73,4.9.62-1,1.19-2,1.74-3.07a61,61,0,0,1-.08,17.28c-.89,6.18,10.39,6.13,11.28,0A66.49,66.49,0,0,0,202.38,63.42Z"/><path class="cls-3" d="M195.49,114.38c-4,7.06-12.06,10.59-19.85,14.05-6.45,2.87-.75,11.26,5.69,8.39,9.46-4.2,19-9,23.9-17.54C208.41,113.69,198.69,108.76,195.49,114.38Z"/><path class="cls-3" d="M178,26.46c-5-2.42-8.15-7-12.82-9.87l-.13-.07a6.22,6.22,0,0,0-4.79-2.4l-.74,0c-5-.23-7.29,5.42-4,8.29A17.17,17.17,0,0,1,161,30.66c1.11,3.77,5.74,4.2,8.65,2.52a19.72,19.72,0,0,0,2.75,1.67C178.67,37.94,184.36,29.55,178,26.46Z"/><path class="cls-4" d="M190.75,83.21a52.11,52.11,0,0,0,4.44-19c3.3,5.11,6.57,10.28,8.21,16s1.81,11.78-.56,17.26"/><path class="cls-4" d="M165.64,32.79a3.28,3.28,0,0,0-.13-2.36,38.55,38.55,0,0,0-6.64-12.17c4.49,3.55,8.82,6.45,13.41,9.9a13.2,13.2,0,0,0,4.64,2.57"/><path class="cls-4" d="M118.25,118.91a62.16,62.16,0,0,0,29.59-2.45"/><path class="cls-4" d="M181.31,131.3a35.68,35.68,0,0,0,16.86-12.52"/><path class="cls-4" d="M106.26,173.69c2.51,1.21,5.52,1.27,8.39,1.25a214.78,214.78,0,0,0,23-1.45"/><path class="cls-4" d="M57,128.72c2.63,2.48,4.83,5.35,8,7.34,4.57,2.89,10.65,3.62,15.08,6.66"/><path class="cls-5" d="M43.89,76.26c-4.38-2.73-8.81-4.67-14.56-4.72C17.55,71.44,9.59,79.7,9,80.28c-4.62,4.83-7.3,10.88-7.89,13.6l-.6,2.75V93.75C.54,42.25,49,.5,108.79.5c3.3-.1,12.48,1.85,17.51,4,4.51,1.94,11.23,4,22.55,14.57,3,2.75,14.08,16.94,11.28,35-4.25,27.28-40.73,37.37-42.85,37.88C99,96.32,72.58,95.23,54.13,83.2,50.39,80.76,47.15,78.29,43.89,76.26Z"/><path class="cls-6" d="M64.58,28.27a77.29,77.29,0,0,1,36.32-7.4c7.26.24,7.24-9.47,0-9.71a90,90,0,0,0-42,8.73C52.54,22.93,58.22,31.32,64.58,28.27Z"/><path class="cls-6" d="M148.56,29.53C142.61,21,131.44,17.15,120.63,15.2c-7.08-1.27-10.1,8.09-3,9.37s15.65,3.26,20.29,8.68c4.27,5,4.18,12,.94,17.35-3.55,5.88-10.64,9.78-17.15,12.92A82.21,82.21,0,0,1,97.27,71c-6.38.88-19.22,2.36-23.44-3.15-3.61-4.72,2-14.44,5.06-18.67C83.31,43,91.09,42,99,42.79c3.52.34,8.89,1.22,6.7,5.14-.76,1.37-2.9,2.44-4.46,3.06a17.38,17.38,0,0,1-3.79.94l-.33,0a5.81,5.81,0,0,0-3.64-1.14h-.59a5.71,5.71,0,0,0-5.44,3.56l-.21.58a4.37,4.37,0,0,0,1.45,4.73c6.6,5.1,19,.71,24.24-4.07,6.72-6.08,6.35-15.32-2.4-19.81-7.69-3.94-20-3.79-28.19-1.18C73,37.52,68.44,44.5,65,52s-6,16.78,1.34,23.31S86,81.89,95.86,80.89a94.55,94.55,0,0,0,31.55-9c8.44-4.08,17.12-9.4,21.58-17C153.55,47.09,153.86,37.13,148.56,29.53Z"/><path class="cls-6" d="M43.44,32.11C33.79,38.22,26,45.84,20.46,55c-3.32,5.55,6.41,10.47,9.73,4.9A58.14,58.14,0,0,1,49.13,40.5C54.92,36.84,49.3,28.4,43.44,32.11Z"/><path class="cls-7" d="M49,48.85a37.2,37.2,0,0,0-3.4,21c.8,6.15,12.08,6.22,11.28,0a31.38,31.38,0,0,1,1.48-14.64A4.3,4.3,0,0,0,59.47,53l.35-1.56C61.21,45.18,51.67,43.13,49,48.85Z"/><path class="cls-7" d="M134.75,41.44a25.19,25.19,0,0,0-7.66-11.92c-5-4.52-13,2.35-8,6.87A15.66,15.66,0,0,1,123.88,44C125.58,50.1,136.46,47.52,134.75,41.44Z"/><path class="cls-8" d="M123.58,32.94a17.51,17.51,0,0,1,6.64,10"/><path class="cls-8" d="M53.84,50.26a36.77,36.77,0,0,0-2.83,15"/><path class="cls-9" d="M216.54,94c-1.06,53.14-47.85,93.29-102,93C50.88,186.66,2.17,149.7.54,97-1.15,42.35,49-4.07,114.54,1,173.75,5.58,217.53,44.28,216.54,94Z"/></g></g></svg>