<svg xmlns="http://www.w3.org/2000/svg" viewBox="0 -6.395 56.24 56.24"><defs><style>.cls-1{fill:#f9e603;}.cls-1,.cls-2,.cls-3,.cls-4{stroke:#000;stroke-miterlimit:10;}.cls-2{fill:#570df9;}.cls-3{fill:#7a7a7a;}.cls-4{fill:#606060;}</style></defs><g id="Layer_2" data-name="Layer 2"><g id="sateliet_1" data-name="sateliet 1"><polyline class="cls-1" points="22.57 34.41 37.56 42.91 48.03 40.24"/><path class="cls-1" d="M20.41,31.88l1.92,2.39.24.14,9.25-3.14a2.87,2.87,0,0,0,.62.24c2.14,1.21,15.7,8.8,15.7,8.8l5-9-.61-.24s-15.42-8.6-15.45-8.56L37,22.37l-4.53-5.58-.13-.17-9.63,2.94-5,8.87Z"/><line class="cls-1" x1="31.82" y1="31.27" x2="36.96" y2="22.37"/><polyline class="cls-1" points="32.43 16.79 48.83 26.18 53.17 31.34"/><polygon class="cls-2" points="31 0.68 22.18 3.59 23.01 19.57 31.77 16.7 31 0.68"/><polygon class="cls-2" points="32.14 30.81 36.73 22.98 55.2 18.62 50.42 26.61 32.14 30.81"/><polygon class="cls-2" points="4.9 41.16 0.78 35.39 18.04 28.83 22.57 34.41 4.9 41.16"/><path class="cls-3" d="M29.29,17a7,7,0,1,1-9.23,10.39"/><ellipse class="cls-4" cx="24.5" cy="22" rx="6.95" ry="4.63" transform="translate(-8.22 25.69) rotate(-48.35)"/></g></g></svg>
