<svg xmlns="http://www.w3.org/2000/svg" viewBox="0 0 66.85 25.05"><defs><style>.cls-1{fill:#570df9;}.cls-1,.cls-2,.cls-3,.cls-4,.cls-5,.cls-6,.cls-7,.cls-8{stroke:#000;stroke-miterlimit:10;}.cls-2{fill:#848184;}.cls-3{fill:#cecece;}.cls-4{fill:none;}.cls-5{fill:#4f4f4f;}.cls-6{fill:#f9e603;}.cls-7{fill:#e5cf00;}.cls-8{fill:#605d4b;}</style></defs><g id="Layer_2" data-name="Layer 2"><g id="debry"><path class="cls-1" d="M20.66,9.56l-.89-1.23.41,14.06,4.68-7Z"/><polyline class="cls-2" points="20.97 19.84 27.01 24.35 43.91 23.27 43.02 9.23 36.98 4.73"/><rect class="cls-3" x="20.5" y="5.25" width="16.94" height="14.07" transform="translate(-0.72 1.86) rotate(-3.64)"/><line class="cls-4" x1="37.87" y1="18.77" x2="43.91" y2="23.27"/><rect class="cls-1" x="45.59" y="6.04" width="20.55" height="14.07" transform="translate(-0.36 1.66) rotate(-1.69)"/><path class="cls-1" d="M44.56,7.64l.83-1.29.41,14.06-5.08-6.74Z"/><rect class="cls-1" x="0.72" y="8.61" width="19.26" height="14.07" transform="translate(21.15 30.97) rotate(178.31)"/><ellipse class="cls-5" cx="31.59" cy="21.76" rx="0.86" ry="2.44" transform="translate(6.86 51.08) rotate(-84.41)"/><ellipse class="cls-5" cx="36.18" cy="20.49" rx="1.05" ry="2.97" transform="translate(12.26 54.5) rotate(-84.41)"/><ellipse class="cls-5" cx="25.4" cy="21.1" rx="1.05" ry="2.98" transform="translate(1.92 44.32) rotate(-84.41)"/><ellipse class="cls-5" cx="28.51" cy="23.77" rx="0.76" ry="1.73" transform="matrix(0.1, -1, 1, 0.1, 2.08, 49.84)"/><ellipse class="cls-5" cx="39.29" cy="22.9" rx="0.86" ry="2.44" transform="translate(15.32 61.54) rotate(-88.42)"/><path class="cls-6" d="M35.2,5.49a12.1,12.1,0,0,1,1.32,5.59,7,7,0,0,1-6.74,7c-4,.35-8.42-1.19-10.47-4.28"/><path class="cls-7" d="M36.09,8.81A9.63,9.63,0,0,1,27.18,18a8.41,8.41,0,0,1-9.42-7.89A9,9,0,0,1,26.21.52C31.2.2,36.14,3.82,36.09,8.81Z"/><path class="cls-4" d="M27.19,9.09a5.52,5.52,0,0,0,2.13-2.73,4.76,4.76,0,0,0-.26-4A5.91,5.91,0,0,0,26.93.47"/><path class="cls-4" d="M18.81,13.07a11.52,11.52,0,0,1,2.68-3,7.54,7.54,0,0,1,5.41-.92"/><path class="cls-4" d="M28.31,17.65c.14-.37,1.68-2.56,1.12-5a7.51,7.51,0,0,0-2.22-3.31"/><circle class="cls-8" cx="27.19" cy="9.09" r="0.57"/></g></g></svg>