<svg xmlns="http://www.w3.org/2000/svg" viewBox="0 0 54.36 46.7"><defs><style>.cls-1{fill:#fff;stroke:#ff000d;stroke-miterlimit:10;}</style></defs><g id="Layer_2" data-name="Layer 2"><g id="warning_sign" data-name="warning sign"><path class="cls-1" d="M4.6,15.82c.43-.28,2.54,4,5.48,4.11,2.29.08,4.77-2.41,5.2-4.93.13-.81,0-1.54-1.37-5.2-1.68-4.33-2.74-6.38-2.47-6.56.61-.4,5.65,9.48,9.58,8.75S25.53.38,27,.5c1.9.15,1,17.45,4.38,18.06,2.06.38,4.93-5.77,5.47-5.47S33.35,19,35,21.84c2.61,4.63,18.72.33,18.88,1.1s-16.14,2.22-17.79,8.75C34.74,37,43.39,43.81,43.18,44s-11-14.08-16.41-12c-4.54,1.69-4.21,14.3-5.2,14.23-.78-.07.31-7.82-3-9.58-2.5-1.33-6.19,1.44-6.57.82-.59-.95,8.82-6.41,7.94-9C19,25.6,6.65,27.34,6.52,26.22c-.08-.65,4.17-1.39,4.1-2.19C10.53,22.81.49,22.47.5,22.12s4.2.4,5.2-1.37S4.22,16.08,4.6,15.82Z"/></g></g></svg>