<svg xmlns="http://www.w3.org/2000/svg" viewBox="0 0 23.29 25.15"><defs><style>.cls-1{fill:#444343;}.cls-1,.cls-2{stroke:#000;stroke-miterlimit:10;}.cls-2{fill:none;}</style></defs><g id="Layer_2" data-name="Layer 2"><g id="extra_assets" data-name="extra assets"><path class="cls-1" d="M.52,11l0-2.63L2,5.07l.92-2,3.35.39,2.67.31,1.69-1.43L12.39.51,14.5.59,17,2l0,4.87,3,.86,2.6,1.78-2.43,2.53-.72,4.13,1.23,1.27a1.14,1.14,0,0,1-.15,1.65l-2.27,2,.35,1.67-2.12,1.53-2.61-.2-1.92.55L5.62,22.91,4,19.21l.56-2.75-.73-1.69L.51,14.3Z"/><line class="cls-2" x1="10.88" y1="13.79" x2="3.77" y2="14.85"/><line class="cls-2" x1="7.92" y1="7.15" x2="6.91" y2="14.47"/></g></g></svg>