<svg xmlns="http://www.w3.org/2000/svg" viewBox="0 0 40.99 56.47"><defs><style>.cls-1{fill:#fc0000;}.cls-1,.cls-2{stroke:#000;stroke-miterlimit:10;}.cls-2{fill:#ffb000;}</style></defs><g id="Layer_2" data-name="Layer 2"><g id="explosion"><path class="cls-1" d="M10.09,5.69c.54.07-.84,5,1.44,7.22,1.79,1.71,5.56,1.49,7.71-.22.69-.56,1.14-1.21,2.63-5.16,1.77-4.67,2.38-7.08,2.74-7,.77.12-2.29,11.66,1.39,13.9S38,8.32,39.08,9.5C40.49,11,27.39,24.24,29.63,27.12,31,28.91,37.72,26,38,26.66s-7.05,2.16-7.82,5.65C28.9,37.9,44.91,46,44.48,46.73S30,36.94,23.94,41c-4.86,3.28-2.83,15-3.13,15s1.29-19.16-4.53-21.43C11.43,32.64,2.64,43,1.9,42.22c-.58-.61,5.86-6,4.46-9.84C5.3,29.52.37,29.09.5,28.32c.21-1.18,11.67,1.19,12.85-1.54,1.26-2.94-9.88-10.39-9.19-11.38.41-.58,4.34,1.88,4.87,1.19.79-1.05-7-8.53-6.75-8.8s3.08,3.34,5.15,2.63S9.6,5.62,10.09,5.69Z"/><path class="cls-2" d="M17.78,24c.48,1.71.92,3.29.26,4.57-1.12,2.13-4.72,2.23-4.66,2.55s3.16-.69,5.45.53c2.71,1.45,2.2,6.06,3.26,6.08.87,0,1-2.94,2.53-3.27S28.23,37.06,28.3,37s-4.66-4.46-3.69-6.47c.53-1.12,2.67-1.19,2.62-1.61s-2.09,0-2.76-.88c-1.07-1.48,2-5.35,1.56-5.72s-1.73,1.74-2.84,1.41c-1.37-.41-1.31-4.07-1.9-4.07-.44,0-.37,2-1.33,2.37-1.27.48-3.28-2.37-3.66-2.09S17.11,21.63,17.78,24Z"/></g></g></svg>
