<svg xmlns="http://www.w3.org/2000/svg" viewBox="0 0 19.01 20.51"><defs><style>.cls-1{fill:#b7b7b7;}.cls-1,.cls-2,.cls-3{stroke:#000;stroke-miterlimit:10;}.cls-2{fill:#848484;}.cls-3{fill:#686868;}</style></defs><g id="Layer_2" data-name="Layer 2"><g id="debry"><path class="cls-1" d="M18.38,3.28a8.34,8.34,0,0,1,0,1c-.05.28.11-.25,0,0-.22.48.39,1.66,0,2-.23.2-.28.93-.56,1.06a3.55,3.55,0,0,1-1.62.39A3.62,3.62,0,1,1,16.2.5c1.82,0,.93,1,1.18,2.78C17.4,3.45,18.38,3.1,18.38,3.28Z"/><path class="cls-1" d="M13.14,10.47l1.18-2.7A1.24,1.24,0,0,0,12.6,6.18L10.18,7.47"/><path class="cls-2" d="M.75,16.79,4.6,13.42l1.9-1.88L8.31,9.32l1.87-1.85c.47-.46,1.52-.17,2.34.66s1.09,1.88.62,2.34l-.82.48-.79.78-.62.94-7.2,7.12"/><path class="cls-3" d="M1.37,19.14a1.41,1.41,0,0,0-.62-.87c-.26-.2-.2-.64-.23-.77a.73.73,0,0,1,.23-.71c.47-.47,1.52-.18,2.34.65s1.1,1.88.62,2.35-1.35.22-2.13-.46C1.51,19.27,1.39,19.23,1.37,19.14Z"/></g></g></svg>