<svg xmlns="http://www.w3.org/2000/svg" viewBox="0 0 22.53 14.02"><defs><style>.cls-1{fill:#570df9;stroke:#000;stroke-miterlimit:10;}</style></defs><g id="Layer_2" data-name="Layer 2"><g id="debry"><polygon class="cls-1" points="22.03 10.5 18.03 11.5 8.03 13.5 5.78 12.5 9.03 10.5 7.27 10.14 2.78 10.79 0.78 7.79 3.78 6.79 1.94 5.14 4.03 1.5 9.5 1.5 12.9 0.54 19.03 0.5 21.09 2.77 18.84 4.06 20.78 6.79 22.03 8.5 22.03 10.5"/><polyline class="cls-1" points="14.03 8.5 12.03 9.5 9.03 10.5"/><path class="cls-1" d="M13,4.5a8.3,8.3,0,0,1,2,1c.14-.1,1.64-.72,1.64-.72L18.51,4"/></g></g></svg>