<svg xmlns="http://www.w3.org/2000/svg" viewBox="0 0 12.88 12.41"><defs><style>.cls-1{fill:#e5cf00;}.cls-1,.cls-2{stroke:#000;stroke-miterlimit:10;}.cls-2{fill:none;}</style></defs><g id="Layer_2" data-name="Layer 2"><g id="debry"><path class="cls-1" d="M11.59,6.5c.6,0,.92,1.18.75,1.73a7.15,7.15,0,0,1-.29.77c-.17.38-.76.67-.62,1.05s-.53.18-.84.45-.7,1-1.1,1.26-1.34-.27-1.9-.26a8.33,8.33,0,0,0-1,0c-.45.06-.73.34-1,0-.45-.6-1.21.89-1.92.24-.17-.15-.59-1.25-1.08-1.24s-1.25-.3-1.07-.79c.37-1,.26-1.74-.77-1.85C.3,7.81.59,7,.59,6.5c0-.84-.29-2.26.49-2.38C2.14,4,2,3.08,2.16,2.46c.15-.47.71-.69,1.12-1s.8.17,1.31,0,1.34-1,2-1A5.94,5.94,0,0,1,7.94.65a6.49,6.49,0,0,1,1.24.43c.25.12.65.15.73.42.29,1.07.67.93,1,.85s.37.41.53.63a6.23,6.23,0,0,1,.66,1.15c.16.37-.6,1-.52,1.37S10.59,6.5,11.59,6.5Z"/><polyline class="cls-2" points="11.59 6.5 10.59 7.5 9.09 7.33 8.59 7.5 8.01 6.92 7.59 7.5 6.59 5.5"/></g></g></svg>